# Blender v2.77 (sub 0) OBJ File: 'ASSET_building.blend'
# www.blender.org
mtllib Balkon_A.mtl
o Balkon_A
v 42.707211 1.013735 -106.952095
v 51.995415 1.013735 -106.952095
v 51.995415 2.087265 -106.952095
v 42.707211 2.087265 -106.952095
v 51.995415 2.087268 -125.528503
v 42.707211 2.087268 -125.528503
v 51.995415 1.013738 -125.528503
v 42.707211 1.013738 -125.528503
v 51.671612 -6.110983 -118.678543
v 51.428616 -3.892147 -118.678543
v 47.597260 1.436124 -118.678543
v 46.192944 1.389528 -118.678543
v 46.192944 1.389528 -119.839272
v 47.597260 1.436124 -119.839272
v 51.428616 -3.892147 -119.839272
v 51.671612 -6.110983 -119.839272
v 51.671612 -6.110984 -112.641327
v 51.428616 -3.892148 -112.641327
v 47.597260 1.436123 -112.641327
v 46.192944 1.389527 -112.641327
v 46.192944 1.389527 -113.802055
v 47.597260 1.436123 -113.802055
v 51.428616 -3.892148 -113.802055
v 51.671612 -6.110984 -113.802055
v 43.164570 1.404272 -107.058258
v 44.093506 1.404272 -107.058258
v 44.093506 6.048375 -107.058258
v 43.164570 6.048375 -107.058258
v 44.093506 6.048375 -107.987198
v 43.164570 6.048375 -107.987198
v 44.093506 1.404272 -107.987198
v 43.164570 1.404272 -107.987198
v 43.513142 4.973758 -124.838432
v 43.745525 4.973758 -124.838432
v 43.745525 4.973755 -107.420990
v 43.513142 4.973755 -107.420990
v 43.745525 5.206135 -107.420990
v 43.513142 5.206135 -107.420990
v 43.745525 5.206138 -124.838432
v 43.513142 5.206138 -124.838432
v 43.164570 1.404275 -124.639084
v 44.093506 1.404275 -124.639084
v 44.093506 6.048378 -124.639076
v 43.164570 6.048378 -124.639076
v 44.093506 6.048378 -125.568016
v 43.164570 6.048378 -125.568016
v 44.093506 1.404275 -125.568016
v 43.164570 1.404275 -125.568016
vt 0.3750 0.0000
vt 0.6250 0.0000
vt 0.6250 0.2500
vt 0.3750 0.2500
vt 0.6250 0.5000
vt 0.3750 0.5000
vt 0.6250 0.7500
vt 0.3750 0.7500
vt 0.6250 1.0000
vt 0.3750 1.0000
vt 0.8750 0.0000
vt 0.8750 0.2500
vt 0.1250 0.0000
vt 0.1250 0.2500
vt 0.3750 0.0000
vt 0.6250 0.0000
vt 0.6250 0.2500
vt 0.3750 0.2500
vt 0.3750 0.5000
vt 0.6250 0.5000
vt 0.6250 0.7500
vt 0.3750 0.7500
vt 0.8750 0.0000
vt 0.8750 0.2500
vt 0.1250 0.0000
vt 0.1250 0.2500
vt 0.3750 0.0000
vt 0.6250 0.0000
vt 0.6250 0.2500
vt 0.3750 0.2500
vt 0.3750 0.5000
vt 0.6250 0.5000
vt 0.6250 0.7500
vt 0.3750 0.7500
vt 0.8750 0.0000
vt 0.8750 0.2500
vt 0.1250 0.0000
vt 0.1250 0.2500
vt 0.3750 0.0000
vt 0.6250 0.0000
vt 0.6250 0.2500
vt 0.3750 0.2500
vt 0.6250 0.5000
vt 0.3750 0.5000
vt 0.6250 0.7500
vt 0.3750 0.7500
vt 0.8750 0.0000
vt 0.8750 0.2500
vt 0.1250 0.0000
vt 0.1250 0.2500
vt 0.3750 0.0000
vt 0.6250 0.0000
vt 0.6250 0.2500
vt 0.3750 0.2500
vt 0.3750 0.5000
vt 0.6250 0.5000
vt 0.6250 0.7500
vt 0.3750 0.7500
vt 0.8750 0.0000
vt 0.8750 0.2500
vt 0.1250 0.0000
vt 0.1250 0.2500
vt 0.3750 0.0000
vt 0.6250 0.0000
vt 0.6250 0.2500
vt 0.3750 0.2500
vt 0.6250 0.5000
vt 0.3750 0.5000
vt 0.6250 0.7500
vt 0.3750 0.7500
vt 0.8750 0.0000
vt 0.8750 0.2500
vt 0.1250 0.0000
vt 0.1250 0.2500
vn 0.0000 0.0000 1.0000
vn 0.0000 1.0000 0.0000
vn 0.0000 0.0000 -1.0000
vn 0.0000 -1.0000 -0.0000
vn 1.0000 0.0000 0.0000
vn -1.0000 0.0000 0.0000
vn 0.8119 0.5838 0.0000
vn -0.8075 -0.5898 0.0000
usemtl Balkon_A_1
s 1
f 1/1/1 2/2/1 3/3/1 4/4/1
f 4/4/2 3/3/2 5/5/2 6/6/2
f 6/6/3 5/5/3 7/7/3 8/8/3
f 8/8/4 7/7/4 2/9/4 1/10/4
f 2/2/5 7/11/5 5/12/5 3/3/5
f 8/13/6 1/1/6 4/4/6 6/14/6
usemtl Balkon_A_2
f 9/15/1 10/16/1 11/17/1 12/18/1
f 13/19/3 14/20/3 15/21/3 16/22/3
f 10/16/7 15/23/7 14/24/7 11/17/7
f 16/25/8 9/15/8 12/18/8 13/26/8
f 17/27/1 18/28/1 19/29/1 20/30/1
f 21/31/3 22/32/3 23/33/3 24/34/3
f 18/28/7 23/35/7 22/36/7 19/29/7
f 24/37/8 17/27/8 20/30/8 21/38/8
f 25/39/1 26/40/1 27/41/1 28/42/1
f 28/42/2 27/41/2 29/43/2 30/44/2
f 30/44/3 29/43/3 31/45/3 32/46/3
f 26/40/5 31/47/5 29/48/5 27/41/5
f 32/49/6 25/39/6 28/42/6 30/50/6
f 33/51/4 34/52/4 35/53/4 36/54/4
f 38/55/2 37/56/2 39/57/2 40/58/2
f 34/52/5 39/59/5 37/60/5 35/53/5
f 40/61/6 33/51/6 36/54/6 38/62/6
f 41/63/1 42/64/1 43/65/1 44/66/1
f 44/66/2 43/65/2 45/67/2 46/68/2
f 46/68/3 45/67/3 47/69/3 48/70/3
f 42/64/5 47/71/5 45/72/5 43/65/5
f 48/73/6 41/63/6 44/66/6 46/74/6
