# Blender v2.77 (sub 0) OBJ File: 'ASSET_building.blend'
# www.blender.org
mtllib Hut_B.mtl
o Hut_B
v -40.637680 -0.000001 44.211601
v -40.748001 -0.000001 44.211601
v -40.748001 5.511799 44.211601
v -40.637680 5.511799 44.211601
v -40.803162 -0.000001 44.307079
v -40.803162 5.511799 44.307079
v -40.748001 -0.000001 44.402561
v -40.748001 5.511799 44.402561
v -40.637680 -0.000001 44.402561
v -40.637680 5.511799 44.402561
v -40.582520 -0.000001 44.307079
v -40.582520 5.511799 44.307079
v -47.251839 -0.000001 44.211601
v -47.362160 -0.000001 44.211601
v -47.362160 5.511799 44.211601
v -47.251839 5.511799 44.211601
v -47.417320 -0.000001 44.307079
v -47.417320 5.511799 44.307079
v -47.362160 -0.000001 44.402561
v -47.362160 5.511799 44.402561
v -47.251839 -0.000001 44.402561
v -47.251839 5.511799 44.402561
v -47.196678 -0.000001 44.307079
v -47.196678 5.511799 44.307079
v -47.251839 0.000001 37.597439
v -47.362160 0.000001 37.597439
v -47.362160 5.511801 37.597443
v -47.251839 5.511801 37.597443
v -47.417320 0.000001 37.692921
v -47.417320 5.511801 37.692921
v -47.362160 0.000001 37.788399
v -47.362160 5.511801 37.788403
v -47.251839 0.000001 37.788399
v -47.251839 5.511801 37.788403
v -47.196678 0.000001 37.692921
v -47.196678 5.511801 37.692921
v -40.637680 0.000001 37.597439
v -40.748001 0.000001 37.597439
v -40.748001 5.511801 37.597443
v -40.637680 5.511801 37.597443
v -40.803162 0.000001 37.692921
v -40.803162 5.511801 37.692921
v -40.748001 0.000001 37.788399
v -40.748001 5.511801 37.788403
v -40.637680 0.000001 37.788399
v -40.637680 5.511801 37.788403
v -40.582520 0.000001 37.692921
v -40.582520 5.511801 37.692921
v -47.808479 5.292840 44.874081
v -44.008598 8.481479 44.874081
v -44.079441 8.566039 44.874081
v -47.879318 5.377399 44.874081
v -44.079441 8.566039 43.992081
v -47.879318 5.377400 43.992081
v -44.008598 8.481479 43.992081
v -47.808479 5.292840 43.992081
v -47.306999 5.511801 37.803242
v -40.692841 5.511801 37.803242
v -40.692841 5.732161 37.803242
v -47.306999 5.732161 37.803242
v -40.692841 5.732161 37.582600
v -47.306999 5.732161 37.582600
v -40.692841 5.511801 37.582600
v -47.306999 5.511801 37.582600
v -40.582520 5.511799 44.307079
v -40.582520 5.511801 37.692921
v -40.582520 5.732161 37.692921
v -40.582520 5.732159 44.307079
v -40.803162 5.732161 37.692921
v -40.803162 5.732159 44.307079
v -40.803162 5.511801 37.692921
v -40.803162 5.511799 44.307079
v -47.196678 5.511799 44.307079
v -47.196678 5.511801 37.692921
v -47.196678 5.732161 37.692921
v -47.196678 5.732159 44.307079
v -47.417320 5.732161 37.692921
v -47.417320 5.732159 44.307079
v -47.417320 5.511801 37.692921
v -47.417320 5.511799 44.307079
v -47.306999 5.511799 44.417400
v -40.692841 5.511799 44.417400
v -40.692841 5.732159 44.417400
v -47.306999 5.732159 44.417400
v -40.692841 5.732159 44.196762
v -47.306999 5.732159 44.196762
v -40.692841 5.511799 44.196762
v -47.306999 5.511799 44.196762
v -43.897438 8.425759 44.874081
v -40.230560 5.348839 44.874081
v -40.159721 5.433119 44.874081
v -43.826599 8.510039 44.874081
v -40.159721 5.433120 43.992081
v -43.826599 8.510039 43.992081
v -40.230560 5.348840 43.992081
v -43.897438 8.425759 43.992081
v -47.751919 5.340440 43.895203
v -44.065159 8.433879 43.895203
v -44.136002 8.518439 43.895203
v -47.822762 5.425000 43.895203
v -44.136002 8.518440 43.013203
v -47.822762 5.425000 43.013199
v -44.065159 8.433880 43.013203
v -47.751919 5.340440 43.013199
v -47.808479 5.292840 41.909161
v -44.008598 8.481480 41.909161
v -44.079441 8.566040 41.909161
v -47.879318 5.377400 41.909161
v -44.079441 8.566040 41.027161
v -47.879318 5.377400 41.027161
v -44.008598 8.481480 41.027161
v -47.808479 5.292840 41.027161
v -47.874279 5.237680 40.819122
v -43.942799 8.536640 40.819122
v -44.013641 8.620920 40.819122
v -47.945122 5.322240 40.819122
v -44.013641 8.620920 39.937122
v -47.945122 5.322240 39.937122
v -43.942799 8.536640 39.937122
v -47.874279 5.237680 39.937122
v -47.808479 5.292840 39.748119
v -44.008598 8.481480 39.748123
v -44.079441 8.566040 39.748123
v -47.879318 5.377400 39.748119
v -44.079441 8.566040 38.866123
v -47.879318 5.377400 38.866119
v -44.008598 8.481481 38.866123
v -47.808479 5.292840 38.866119
v -47.747719 5.344080 38.767281
v -44.069359 8.430241 38.767281
v -44.140202 8.514800 38.767281
v -47.818562 5.428360 38.767281
v -44.140202 8.514800 37.885563
v -47.818562 5.428360 37.885559
v -44.069359 8.430241 37.885563
v -47.747719 5.344080 37.885559
v -47.808479 5.292840 37.777203
v -44.008598 8.481481 37.777203
v -44.079441 8.566040 37.777203
v -47.879318 5.377401 37.777203
v -44.079441 8.566040 36.895481
v -47.879318 5.377401 36.895481
v -44.008598 8.481481 36.895481
v -47.808479 5.292840 36.895481
v -43.964081 8.481479 43.826603
v -40.163921 5.292840 43.826599
v -40.093079 5.377400 43.826599
v -43.893238 8.566039 43.826603
v -40.093079 5.377400 42.944881
v -43.893238 8.566040 42.944881
v -40.163921 5.292840 42.944881
v -43.964081 8.481480 42.944881
v -43.917320 8.442280 42.835400
v -40.210678 5.332039 42.835400
v -40.139839 5.416600 42.835400
v -43.846481 8.526840 42.835400
v -40.139839 5.416600 41.953400
v -43.846481 8.526840 41.953400
v -40.210678 5.332040 41.953400
v -43.917320 8.442280 41.953400
v -44.009720 8.519839 41.896843
v -40.118000 5.254480 41.896839
v -40.047161 5.338760 41.896839
v -43.938881 8.604400 41.896843
v -40.047161 5.338760 41.014839
v -43.938881 8.604400 41.014843
v -40.118000 5.254480 41.014839
v -44.009720 8.519839 41.014843
v -43.915359 8.440599 39.782001
v -40.212639 5.333720 39.782001
v -40.141800 5.418000 39.782001
v -43.844521 8.525160 39.782001
v -40.141800 5.418000 38.900280
v -43.844521 8.525160 38.900280
v -40.212639 5.333720 38.900280
v -43.915359 8.440600 38.900280
v -44.067120 8.568001 37.754520
v -40.060879 5.206321 37.754520
v -39.990040 5.290881 37.754520
v -43.996281 8.652560 37.754520
v -39.990040 5.290881 36.872520
v -43.996281 8.652560 36.872520
v -40.060879 5.206321 36.872520
v -44.067120 8.568001 36.872520
v -43.964081 8.481481 38.748802
v -40.163921 5.292840 38.748802
v -40.093079 5.377400 38.748802
v -43.893238 8.566040 38.748802
v -40.093079 5.377401 37.866802
v -43.893238 8.566040 37.866802
v -40.163921 5.292840 37.866802
v -43.964081 8.481481 37.866802
v -43.999920 8.316839 44.858402
v -43.766121 8.317399 44.858402
v -43.999920 8.551199 44.858402
v -44.233719 8.317399 44.858402
v -43.999920 8.551200 37.141602
v -44.233719 8.317401 37.141602
v -43.766121 8.317401 37.141602
v -43.999920 8.316840 37.141602
vt 0.3750 0.0000
vt 0.6250 0.0000
vt 0.6250 0.2500
vt 0.3750 0.2500
vt 0.6250 0.5000
vt 0.3750 0.5000
vt 0.6250 0.7500
vt 0.3750 0.7500
vt 0.6250 1.0000
vt 0.3750 1.0000
vt 0.8750 0.0000
vt 0.8750 0.2500
vt 0.1250 0.0000
vt 0.1250 0.2500
vt 0.3750 0.0000
vt 0.6250 0.0000
vt 0.6250 0.2500
vt 0.3750 0.2500
vt 0.6250 0.5000
vt 0.3750 0.5000
vt 0.6250 0.7500
vt 0.3750 0.7500
vt 0.6250 1.0000
vt 0.3750 1.0000
vt 0.8750 0.0000
vt 0.8750 0.2500
vt 0.1250 0.0000
vt 0.1250 0.2500
vt 0.3750 0.0000
vt 0.6250 0.0000
vt 0.6250 0.2500
vt 0.3750 0.2500
vt 0.6250 0.5000
vt 0.3750 0.5000
vt 0.6250 0.7500
vt 0.3750 0.7500
vt 0.6250 1.0000
vt 0.3750 1.0000
vt 0.8750 0.0000
vt 0.8750 0.2500
vt 0.1250 0.0000
vt 0.1250 0.2500
vt 0.3750 0.0000
vt 0.6250 0.0000
vt 0.6250 0.2500
vt 0.3750 0.2500
vt 0.6250 0.5000
vt 0.3750 0.5000
vt 0.6250 0.7500
vt 0.3750 0.7500
vt 0.6250 1.0000
vt 0.3750 1.0000
vt 0.8750 0.0000
vt 0.8750 0.2500
vt 0.1250 0.0000
vt 0.1250 0.2500
vt 0.3750 0.0000
vt 0.6250 0.0000
vt 0.6250 0.2500
vt 0.3750 0.2500
vt 0.6250 0.5000
vt 0.3750 0.5000
vt 0.6250 0.7500
vt 0.3750 0.7500
vt 0.6250 1.0000
vt 0.3750 1.0000
vt 0.8750 0.0000
vt 0.8750 0.2500
vt 0.1250 0.0000
vt 0.1250 0.2500
vt 0.3750 0.0000
vt 0.6250 0.0000
vt 0.6250 0.2500
vt 0.3750 0.2500
vt 0.6250 0.5000
vt 0.3750 0.5000
vt 0.6250 0.7500
vt 0.3750 0.7500
vt 0.6250 1.0000
vt 0.3750 1.0000
vt 0.8750 0.0000
vt 0.8750 0.2500
vt 0.1250 0.0000
vt 0.1250 0.2500
vt 0.3750 0.0000
vt 0.6250 0.0000
vt 0.6250 0.2500
vt 0.3750 0.2500
vt 0.6250 0.5000
vt 0.3750 0.5000
vt 0.6250 0.7500
vt 0.3750 0.7500
vt 0.6250 1.0000
vt 0.3750 1.0000
vt 0.8750 0.0000
vt 0.8750 0.2500
vt 0.1250 0.0000
vt 0.1250 0.2500
vt 0.3750 0.0000
vt 0.6250 0.0000
vt 0.6250 0.2500
vt 0.3750 0.2500
vt 0.6250 0.5000
vt 0.3750 0.5000
vt 0.6250 0.7500
vt 0.3750 0.7500
vt 0.6250 1.0000
vt 0.3750 1.0000
vt 0.8750 0.0000
vt 0.8750 0.2500
vt 0.1250 0.0000
vt 0.1250 0.2500
vt 0.3750 0.0000
vt 0.6250 0.0000
vt 0.6250 0.2500
vt 0.3750 0.2500
vt 0.6250 0.5000
vt 0.3750 0.5000
vt 0.6250 0.7500
vt 0.3750 0.7500
vt 0.6250 1.0000
vt 0.3750 1.0000
vt 0.8750 0.0000
vt 0.8750 0.2500
vt 0.1250 0.0000
vt 0.1250 0.2500
vt 0.3750 0.0000
vt 0.6250 0.0000
vt 0.6250 0.2500
vt 0.3750 0.2500
vt 0.6250 0.5000
vt 0.3750 0.5000
vt 0.6250 0.7500
vt 0.3750 0.7500
vt 0.6250 1.0000
vt 0.3750 1.0000
vt 0.8750 0.0000
vt 0.8750 0.2500
vt 0.1250 0.0000
vt 0.1250 0.2500
vt 0.3750 0.0000
vt 0.6250 0.0000
vt 0.6250 0.2500
vt 0.3750 0.2500
vt 0.6250 0.5000
vt 0.3750 0.5000
vt 0.6250 0.7500
vt 0.3750 0.7500
vt 0.6250 1.0000
vt 0.3750 1.0000
vt 0.8750 0.0000
vt 0.8750 0.2500
vt 0.1250 0.0000
vt 0.1250 0.2500
vt 0.3750 0.0000
vt 0.6250 0.0000
vt 0.6250 0.2500
vt 0.3750 0.2500
vt 0.6250 0.5000
vt 0.3750 0.5000
vt 0.6250 0.7500
vt 0.3750 0.7500
vt 0.6250 1.0000
vt 0.3750 1.0000
vt 0.8750 0.0000
vt 0.8750 0.2500
vt 0.1250 0.0000
vt 0.1250 0.2500
vt 0.3750 0.0000
vt 0.6250 0.0000
vt 0.6250 0.2500
vt 0.3750 0.2500
vt 0.6250 0.5000
vt 0.3750 0.5000
vt 0.6250 0.7500
vt 0.3750 0.7500
vt 0.6250 1.0000
vt 0.3750 1.0000
vt 0.8750 0.0000
vt 0.8750 0.2500
vt 0.1250 0.0000
vt 0.1250 0.2500
vt 0.3750 0.0000
vt 0.6250 0.0000
vt 0.6250 0.2500
vt 0.3750 0.2500
vt 0.6250 0.5000
vt 0.3750 0.5000
vt 0.6250 0.7500
vt 0.3750 0.7500
vt 0.6250 1.0000
vt 0.3750 1.0000
vt 0.8750 0.0000
vt 0.8750 0.2500
vt 0.1250 0.0000
vt 0.1250 0.2500
vt 0.3750 0.3125
vt 0.4167 0.3125
vt 0.4167 0.6884
vt 0.3750 0.6884
vt 0.4583 0.3125
vt 0.4583 0.6884
vt 0.5000 0.3125
vt 0.5000 0.6884
vt 0.5417 0.3125
vt 0.5417 0.6884
vt 0.5833 0.3125
vt 0.5833 0.6884
vt 0.6250 0.3125
vt 0.6250 0.6884
vt 0.3750 0.3125
vt 0.4167 0.3125
vt 0.4167 0.6884
vt 0.3750 0.6884
vt 0.4583 0.3125
vt 0.4583 0.6884
vt 0.5000 0.3125
vt 0.5000 0.6884
vt 0.5417 0.3125
vt 0.5417 0.6884
vt 0.5833 0.3125
vt 0.5833 0.6884
vt 0.6250 0.3125
vt 0.6250 0.6884
vt 0.3750 0.3125
vt 0.4167 0.3125
vt 0.4167 0.6884
vt 0.3750 0.6884
vt 0.4583 0.3125
vt 0.4583 0.6884
vt 0.5000 0.3125
vt 0.5000 0.6884
vt 0.5417 0.3125
vt 0.5417 0.6884
vt 0.5833 0.3125
vt 0.5833 0.6884
vt 0.6250 0.3125
vt 0.6250 0.6884
vt 0.3750 0.3125
vt 0.4167 0.3125
vt 0.4167 0.6884
vt 0.3750 0.6884
vt 0.4583 0.3125
vt 0.4583 0.6884
vt 0.5000 0.3125
vt 0.5000 0.6884
vt 0.5417 0.3125
vt 0.5417 0.6884
vt 0.5833 0.3125
vt 0.5833 0.6884
vt 0.6250 0.3125
vt 0.6250 0.6884
vt 0.3750 0.0000
vt 0.6250 0.0000
vt 0.6250 0.2500
vt 0.3750 0.2500
vt 0.6250 0.5000
vt 0.3750 0.5000
vt 0.6250 0.7500
vt 0.3750 0.7500
vt 0.6250 1.0000
vt 0.3750 1.0000
vt 0.8750 0.0000
vt 0.8750 0.2500
vt 0.1250 0.0000
vt 0.1250 0.2500
vt 0.3750 0.0000
vt 0.6250 0.0000
vt 0.6250 0.2500
vt 0.3750 0.2500
vt 0.6250 0.5000
vt 0.3750 0.5000
vt 0.6250 0.7500
vt 0.3750 0.7500
vt 0.6250 1.0000
vt 0.3750 1.0000
vt 0.8750 0.0000
vt 0.8750 0.2500
vt 0.1250 0.0000
vt 0.1250 0.2500
vt 0.3750 0.0000
vt 0.6250 0.0000
vt 0.6250 0.2500
vt 0.3750 0.2500
vt 0.6250 0.5000
vt 0.3750 0.5000
vt 0.6250 0.7500
vt 0.3750 0.7500
vt 0.6250 1.0000
vt 0.3750 1.0000
vt 0.8750 0.0000
vt 0.8750 0.2500
vt 0.1250 0.0000
vt 0.1250 0.2500
vt 0.3750 0.0000
vt 0.6250 0.0000
vt 0.6250 0.2500
vt 0.3750 0.2500
vt 0.6250 0.5000
vt 0.3750 0.5000
vt 0.6250 0.7500
vt 0.3750 0.7500
vt 0.6250 1.0000
vt 0.3750 1.0000
vt 0.8750 0.0000
vt 0.8750 0.2500
vt 0.1250 0.0000
vt 0.1250 0.2500
vt 0.3750 0.0000
vt 0.6250 0.0000
vt 0.6250 0.2500
vt 0.3750 0.2500
vt 0.6250 0.5000
vt 0.3750 0.5000
vt 0.6250 0.7500
vt 0.3750 0.7500
vt 0.6250 1.0000
vt 0.3750 1.0000
vt 0.8750 0.0000
vt 0.8750 0.2500
vt 0.1250 0.0000
vt 0.1250 0.2500
vn 0.0000 0.0000 1.0000
vn -0.6428 0.7660 0.0000
vn 0.0000 0.0000 -1.0000
vn 0.6428 -0.7660 0.0000
vn 0.7661 0.6427 0.0000
vn -0.7661 -0.6427 -0.0000
vn 0.6428 0.7660 0.0000
vn -0.6428 -0.7660 0.0000
vn 0.7659 -0.6429 -0.0000
vn -0.7659 0.6429 0.0000
vn -0.6428 0.7661 0.0000
vn 0.6428 -0.7661 -0.0000
vn -0.7660 -0.6428 0.0000
vn -0.7662 -0.6425 0.0000
vn 0.7659 0.6429 -0.0000
vn 0.6427 -0.7661 0.0000
vn -0.7659 -0.6430 -0.0000
vn 0.6428 0.7661 0.0000
vn -0.6428 -0.7661 0.0000
vn 0.7661 -0.6427 -0.0000
vn -0.7661 0.6427 0.0000
vn 0.7659 -0.6430 0.0000
vn -0.7663 0.6425 -0.0000
vn -0.8659 0.0000 -0.5003
vn -0.8659 0.0000 0.5002
vn 0.8659 0.0000 0.5002
vn 0.8659 0.0000 -0.5003
vn 0.0000 1.0000 0.0000
vn 0.0000 -1.0000 0.0000
vn 1.0000 0.0000 0.0000
vn -1.0000 0.0000 0.0000
vn -0.7071 0.7071 0.0000
vn 0.0024 -1.0000 -0.0000
vn 0.7071 0.7071 0.0000
vn -0.0024 -1.0000 -0.0000
usemtl Hut_B_roof
s 1
f 49/1/1 50/2/1 51/3/1 52/4/1
f 52/4/2 51/3/2 53/5/2 54/6/2
f 54/6/3 53/5/3 55/7/3 56/8/3
f 56/8/4 55/7/4 50/9/4 49/10/4
f 50/2/5 55/11/5 53/12/5 51/3/5
f 56/13/6 49/1/6 52/4/6 54/14/6
f 89/15/1 90/16/1 91/17/1 92/18/1
f 92/18/7 91/17/7 93/19/7 94/20/7
f 94/20/3 93/19/3 95/21/3 96/22/3
f 96/22/8 95/21/8 90/23/8 89/24/8
f 90/16/9 95/25/9 93/26/9 91/17/9
f 96/27/10 89/15/10 92/18/10 94/28/10
f 97/29/1 98/30/1 99/31/1 100/32/1
f 100/32/11 99/31/11 101/33/11 102/34/11
f 102/34/3 101/33/3 103/35/3 104/36/3
f 104/36/12 103/35/12 98/37/12 97/38/12
f 98/30/5 103/39/5 101/40/5 99/31/5
f 104/41/13 97/29/13 100/32/13 102/42/13
f 105/43/1 106/44/1 107/45/1 108/46/1
f 108/46/2 107/45/2 109/47/2 110/48/2
f 110/48/3 109/47/3 111/49/3 112/50/3
f 112/50/4 111/49/4 106/51/4 105/52/4
f 106/44/5 111/53/5 109/54/5 107/45/5
f 112/55/14 105/43/14 108/46/14 110/56/14
f 113/57/1 114/58/1 115/59/1 116/60/1
f 116/60/11 115/59/11 117/61/11 118/62/11
f 118/62/3 117/61/3 119/63/3 120/64/3
f 120/64/4 119/63/4 114/65/4 113/66/4
f 114/58/15 119/67/15 117/68/15 115/59/15
f 120/69/6 113/57/6 116/60/6 118/70/6
f 121/71/1 122/72/1 123/73/1 124/74/1
f 124/74/2 123/73/2 125/75/2 126/76/2
f 126/76/3 125/75/3 127/77/3 128/78/3
f 128/78/4 127/77/4 122/79/4 121/80/4
f 122/72/5 127/81/5 125/82/5 123/73/5
f 128/83/14 121/71/14 124/74/14 126/84/14
f 129/85/1 130/86/1 131/87/1 132/88/1
f 132/88/11 131/87/11 133/89/11 134/90/11
f 134/90/3 133/89/3 135/91/3 136/92/3
f 136/92/16 135/91/16 130/93/16 129/94/16
f 130/86/5 135/95/5 133/96/5 131/87/5
f 136/97/17 129/85/17 132/88/17 134/98/17
f 137/99/1 138/100/1 139/101/1 140/102/1
f 140/102/2 139/101/2 141/103/2 142/104/2
f 142/104/3 141/103/3 143/105/3 144/106/3
f 144/106/4 143/105/4 138/107/4 137/108/4
f 138/100/5 143/109/5 141/110/5 139/101/5
f 144/111/6 137/99/6 140/102/6 142/112/6
f 145/113/1 146/114/1 147/115/1 148/116/1
f 148/116/18 147/115/18 149/117/18 150/118/18
f 150/118/3 149/117/3 151/119/3 152/120/3
f 152/120/19 151/119/19 146/121/19 145/122/19
f 146/114/20 151/123/20 149/124/20 147/115/20
f 152/125/21 145/113/21 148/116/21 150/126/21
f 153/127/1 154/128/1 155/129/1 156/130/1
f 156/130/7 155/129/7 157/131/7 158/132/7
f 158/132/3 157/131/3 159/133/3 160/134/3
f 160/134/8 159/133/8 154/135/8 153/136/8
f 154/128/20 159/137/20 157/138/20 155/129/20
f 160/139/21 153/127/21 156/130/21 158/140/21
f 161/141/1 162/142/1 163/143/1 164/144/1
f 164/144/7 163/143/7 165/145/7 166/146/7
f 166/146/3 165/145/3 167/147/3 168/148/3
f 168/148/19 167/147/19 162/149/19 161/150/19
f 162/142/9 167/151/9 165/152/9 163/143/9
f 168/153/21 161/141/21 164/144/21 166/154/21
f 169/155/1 170/156/1 171/157/1 172/158/1
f 172/158/7 171/157/7 173/159/7 174/160/7
f 174/160/3 173/159/3 175/161/3 176/162/3
f 176/162/19 175/161/19 170/163/19 169/164/19
f 170/156/22 175/165/22 173/166/22 171/157/22
f 176/167/23 169/155/23 172/158/23 174/168/23
f 177/169/1 178/170/1 179/171/1 180/172/1
f 180/172/7 179/171/7 181/173/7 182/174/7
f 182/174/3 181/173/3 183/175/3 184/176/3
f 184/176/8 183/175/8 178/177/8 177/178/8
f 178/170/20 183/179/20 181/180/20 179/171/20
f 184/181/21 177/169/21 180/172/21 182/182/21
f 185/183/1 186/184/1 187/185/1 188/186/1
f 188/186/18 187/185/18 189/187/18 190/188/18
f 190/188/3 189/187/3 191/189/3 192/190/3
f 192/190/19 191/189/19 186/191/19 185/192/19
f 186/184/20 191/193/20 189/194/20 187/185/20
f 192/195/21 185/183/21 188/186/21 190/196/21
usemtl Hut_C_frames
f 1/197/3 2/198/3 3/199/3 4/200/3
f 2/198/24 5/201/24 6/202/24 3/199/24
f 5/201/25 7/203/25 8/204/25 6/202/25
f 7/203/1 9/205/1 10/206/1 8/204/1
f 9/205/26 11/207/26 12/208/26 10/206/26
f 11/207/27 1/209/27 4/210/27 12/208/27
f 13/211/3 14/212/3 15/213/3 16/214/3
f 14/212/24 17/215/24 18/216/24 15/213/24
f 17/215/25 19/217/25 20/218/25 18/216/25
f 19/217/1 21/219/1 22/220/1 20/218/1
f 21/219/26 23/221/26 24/222/26 22/220/26
f 23/221/27 13/223/27 16/224/27 24/222/27
f 25/225/3 26/226/3 27/227/3 28/228/3
f 26/226/24 29/229/24 30/230/24 27/227/24
f 29/229/25 31/231/25 32/232/25 30/230/25
f 31/231/1 33/233/1 34/234/1 32/232/1
f 33/233/26 35/235/26 36/236/26 34/234/26
f 35/235/27 25/237/27 28/238/27 36/236/27
f 37/239/3 38/240/3 39/241/3 40/242/3
f 38/240/24 41/243/24 42/244/24 39/241/24
f 41/243/25 43/245/25 44/246/25 42/244/25
f 43/245/1 45/247/1 46/248/1 44/246/1
f 45/247/26 47/249/26 48/250/26 46/248/26
f 47/249/27 37/251/27 40/252/27 48/250/27
f 57/253/1 58/254/1 59/255/1 60/256/1
f 60/256/28 59/255/28 61/257/28 62/258/28
f 62/258/3 61/257/3 63/259/3 64/260/3
f 64/260/29 63/259/29 58/261/29 57/262/29
f 58/254/30 63/263/30 61/264/30 59/255/30
f 64/265/31 57/253/31 60/256/31 62/266/31
f 65/267/30 66/268/30 67/269/30 68/270/30
f 68/270/28 67/269/28 69/271/28 70/272/28
f 70/272/31 69/271/31 71/273/31 72/274/31
f 72/274/29 71/273/29 66/275/29 65/276/29
f 66/268/3 71/277/3 69/278/3 67/269/3
f 72/279/1 65/267/1 68/270/1 70/280/1
f 73/281/30 74/282/30 75/283/30 76/284/30
f 76/284/28 75/283/28 77/285/28 78/286/28
f 78/286/31 77/285/31 79/287/31 80/288/31
f 80/288/29 79/287/29 74/289/29 73/290/29
f 74/282/3 79/291/3 77/292/3 75/283/3
f 80/293/1 73/281/1 76/284/1 78/294/1
f 81/295/1 82/296/1 83/297/1 84/298/1
f 84/298/28 83/297/28 85/299/28 86/300/28
f 86/300/3 85/299/3 87/301/3 88/302/3
f 88/302/29 87/301/29 82/303/29 81/304/29
f 82/296/30 87/305/30 85/306/30 83/297/30
f 88/307/31 81/295/31 84/298/31 86/308/31
f 193/309/1 194/310/1 195/311/1 196/312/1
f 196/312/32 195/311/32 197/313/32 198/314/32
f 198/314/3 197/313/3 199/315/3 200/316/3
f 200/316/33 199/315/33 194/317/33 193/318/33
f 194/310/34 199/319/34 197/320/34 195/311/34
f 200/321/35 193/309/35 196/312/35 198/322/35
