# Blender v2.77 (sub 0) OBJ File: 'ASSET_building.blend'
# www.blender.org
mtllib Hut_C.mtl
o Hut_C
v -48.137680 -0.000001 32.717316
v -48.248001 -0.000001 32.717316
v -48.248001 5.511799 32.717316
v -48.137680 5.511799 32.717316
v -48.303162 -0.000001 32.854237
v -48.303162 5.511799 32.854237
v -48.248001 -0.000001 32.991158
v -48.248001 5.511799 32.991158
v -48.137680 -0.000001 32.991158
v -48.137680 5.511799 32.991158
v -48.082520 -0.000001 32.854237
v -48.082520 5.511799 32.854237
v -54.751839 -0.000001 32.717316
v -54.862160 -0.000001 32.717316
v -54.862160 5.511799 32.717316
v -54.751839 5.511799 32.717316
v -54.917320 -0.000001 32.854237
v -54.917320 5.511799 32.854237
v -54.862160 -0.000001 32.991158
v -54.862160 5.511799 32.991158
v -54.751839 -0.000001 32.991158
v -54.751839 5.511799 32.991158
v -54.696678 -0.000001 32.854237
v -54.696678 5.511799 32.854237
v -54.751839 0.000001 23.944357
v -54.862160 0.000001 23.944357
v -54.862160 5.511801 23.944357
v -54.751839 5.511801 23.944357
v -54.917320 0.000001 24.081276
v -54.917320 5.511801 24.081278
v -54.862160 0.000001 24.218197
v -54.862160 5.511801 24.218197
v -54.751839 0.000001 24.218197
v -54.751839 5.511801 24.218197
v -54.696678 0.000001 24.081276
v -54.696678 5.511801 24.081278
v -48.137680 0.000001 23.944357
v -48.248001 0.000001 23.944357
v -48.248001 5.511801 23.944357
v -48.137680 5.511801 23.944357
v -48.303162 0.000001 24.081276
v -48.303162 5.511801 24.081278
v -48.248001 0.000001 24.218197
v -48.248001 5.511801 24.218197
v -48.137680 0.000001 24.218197
v -48.137680 5.511801 24.218197
v -48.082520 0.000001 24.081276
v -48.082520 5.511801 24.081278
v -55.308479 5.292839 33.653637
v -51.508598 8.481479 33.653637
v -51.579441 8.566039 33.653637
v -55.379318 5.377399 33.653637
v -51.579441 8.566039 32.388599
v -55.379318 5.377399 32.388596
v -51.508598 8.481479 32.388599
v -55.308479 5.292840 32.388596
v -54.806999 5.511801 24.239477
v -48.192841 5.511801 24.239477
v -48.192841 5.732161 24.239477
v -54.806999 5.732161 24.239477
v -48.192841 5.732161 23.923357
v -54.806999 5.732161 23.923357
v -48.192841 5.511801 23.923357
v -54.806999 5.511801 23.923357
v -48.073559 5.511799 32.854237
v -48.073559 5.511801 24.081278
v -48.073559 5.732161 24.081278
v -48.073559 5.732159 32.854237
v -48.312119 5.732161 24.081278
v -48.312119 5.732159 32.854237
v -48.312119 5.511801 24.081278
v -48.312119 5.511799 32.854237
v -54.687721 5.511799 32.854237
v -54.687721 5.511801 24.081278
v -54.687721 5.732161 24.081278
v -54.687721 5.732159 32.854237
v -54.926281 5.732161 24.081278
v -54.926281 5.732159 32.854237
v -54.926281 5.511801 24.081278
v -54.926281 5.511799 32.854237
v -54.806999 5.511799 33.012157
v -48.192841 5.511799 33.012157
v -48.192841 5.732159 33.012157
v -54.806999 5.732159 33.012157
v -48.192841 5.732159 32.696037
v -54.806999 5.732159 32.696037
v -48.192841 5.511799 32.696037
v -54.806999 5.511799 32.696037
v -51.397438 8.425759 33.653637
v -47.730560 5.348839 33.653637
v -47.659721 5.433119 33.653637
v -51.326599 8.510039 33.653637
v -47.659721 5.433119 32.388596
v -51.326599 8.510039 32.388599
v -47.730560 5.348839 32.388596
v -51.397438 8.425759 32.388599
v -55.220840 5.366479 31.029198
v -51.596241 8.407839 31.029198
v -51.667080 8.492399 31.029198
v -55.291679 5.450759 31.029198
v -51.667080 8.492400 29.764158
v -55.291679 5.450759 29.764156
v -51.596241 8.407840 29.764158
v -55.220840 5.366479 29.764156
v -55.251919 5.340439 32.355278
v -51.565159 8.433879 32.355278
v -51.636002 8.518439 32.355278
v -55.322762 5.424999 32.355278
v -51.636002 8.518439 31.090517
v -55.322762 5.425000 31.090517
v -51.565159 8.433879 31.090517
v -55.251919 5.340440 31.090517
v -55.308479 5.292840 29.721037
v -51.508598 8.481480 29.721037
v -51.579441 8.566040 29.721037
v -55.379318 5.377400 29.721037
v -51.579441 8.566040 28.456278
v -55.379318 5.377400 28.456278
v -51.508598 8.481480 28.456278
v -55.308479 5.292840 28.456278
v -55.374279 5.237680 28.275396
v -51.442799 8.536640 28.275398
v -51.513641 8.620920 28.275398
v -55.445122 5.322240 28.275396
v -51.513641 8.620920 27.010357
v -55.445122 5.322240 27.010357
v -51.442799 8.536640 27.010357
v -55.374279 5.237680 27.010357
v -55.308479 5.292840 26.854958
v -51.508598 8.481480 26.854958
v -51.579441 8.566040 26.854958
v -55.379318 5.377400 26.854958
v -51.579441 8.566040 25.589918
v -55.379318 5.377400 25.589918
v -51.508598 8.481481 25.589918
v -55.308479 5.292840 25.589918
v -55.247719 5.344080 25.554077
v -51.569359 8.430241 25.554077
v -51.640202 8.514800 25.554077
v -55.318562 5.428360 25.554077
v -51.640202 8.514800 24.289318
v -55.318562 5.428360 24.289318
v -51.569359 8.430241 24.289318
v -55.247719 5.344080 24.289318
v -55.308479 5.292840 24.240877
v -51.508598 8.481481 24.240877
v -51.579441 8.566040 24.240877
v -55.379318 5.377401 24.240877
v -51.579441 8.566040 22.975838
v -55.379318 5.377401 22.975838
v -51.508598 8.481481 22.975838
v -55.308479 5.292841 22.975838
v -51.464081 8.481479 32.264557
v -47.663921 5.292840 32.264557
v -47.593079 5.377399 32.264557
v -51.393238 8.566039 32.264557
v -47.593079 5.377400 30.999798
v -51.393238 8.566039 30.999798
v -47.663921 5.292840 30.999798
v -51.464081 8.481479 30.999798
v -51.417320 8.442279 30.949677
v -47.710678 5.332039 30.949677
v -47.639839 5.416600 30.949677
v -51.346481 8.526839 30.949677
v -47.639839 5.416600 29.684637
v -51.346481 8.526840 29.684637
v -47.710678 5.332039 29.684637
v -51.417320 8.442280 29.684637
v -51.509720 8.519839 29.636757
v -47.618000 5.254480 29.636757
v -47.547161 5.338759 29.636757
v -51.438881 8.604400 29.636757
v -47.547161 5.338760 28.371998
v -51.438881 8.604400 28.371998
v -47.618000 5.254480 28.371998
v -51.509720 8.519839 28.371998
v -51.415359 8.440599 26.900038
v -47.712639 5.333720 26.900038
v -47.641800 5.418000 26.900038
v -51.344521 8.525160 26.900038
v -47.641800 5.418000 25.634996
v -51.344521 8.525160 25.634998
v -47.712639 5.333720 25.634996
v -51.415359 8.440600 25.634998
v -51.571880 8.572200 28.294998
v -47.555840 5.202400 28.294996
v -47.485001 5.286680 28.294996
v -51.501041 8.656480 28.294998
v -47.485001 5.286680 27.030237
v -51.501041 8.656480 27.030237
v -47.555840 5.202400 27.030237
v -51.571880 8.572200 27.030237
v -51.567120 8.568001 24.210638
v -47.560879 5.206321 24.210636
v -47.490040 5.290881 24.210636
v -51.496281 8.652560 24.210638
v -47.490040 5.290881 22.945597
v -51.496281 8.652560 22.945599
v -47.560879 5.206321 22.945597
v -51.567120 8.568001 22.945599
v -51.464081 8.481481 25.529438
v -47.663921 5.292840 25.529438
v -47.593079 5.377400 25.529438
v -51.393238 8.566040 25.529438
v -47.593079 5.377401 24.264397
v -51.393238 8.566040 24.264397
v -47.663921 5.292840 24.264397
v -51.464081 8.481481 24.264397
v -51.499920 8.316839 33.817997
v -51.266121 8.317399 33.817997
v -51.499920 8.551199 33.817997
v -51.733719 8.317399 33.817997
v -51.499920 8.551200 22.782639
v -51.733719 8.317401 22.782639
v -51.266121 8.317401 22.782639
v -51.499920 8.316840 22.782639
vt 0.3750 0.0000
vt 0.6250 0.0000
vt 0.6250 0.2500
vt 0.3750 0.2500
vt 0.6250 0.5000
vt 0.3750 0.5000
vt 0.6250 0.7500
vt 0.3750 0.7500
vt 0.6250 1.0000
vt 0.3750 1.0000
vt 0.8750 0.0000
vt 0.8750 0.2500
vt 0.1250 0.0000
vt 0.1250 0.2500
vt 0.3750 0.0000
vt 0.6250 0.0000
vt 0.6250 0.2500
vt 0.3750 0.2500
vt 0.6250 0.5000
vt 0.3750 0.5000
vt 0.6250 0.7500
vt 0.3750 0.7500
vt 0.6250 1.0000
vt 0.3750 1.0000
vt 0.8750 0.0000
vt 0.8750 0.2500
vt 0.1250 0.0000
vt 0.1250 0.2500
vt 0.3750 0.0000
vt 0.6250 0.0000
vt 0.6250 0.2500
vt 0.3750 0.2500
vt 0.6250 0.5000
vt 0.3750 0.5000
vt 0.6250 0.7500
vt 0.3750 0.7500
vt 0.6250 1.0000
vt 0.3750 1.0000
vt 0.8750 0.0000
vt 0.8750 0.2500
vt 0.1250 0.0000
vt 0.1250 0.2500
vt 0.3750 0.0000
vt 0.6250 0.0000
vt 0.6250 0.2500
vt 0.3750 0.2500
vt 0.6250 0.5000
vt 0.3750 0.5000
vt 0.6250 0.7500
vt 0.3750 0.7500
vt 0.6250 1.0000
vt 0.3750 1.0000
vt 0.8750 0.0000
vt 0.8750 0.2500
vt 0.1250 0.0000
vt 0.1250 0.2500
vt 0.3750 0.0000
vt 0.6250 0.0000
vt 0.6250 0.2500
vt 0.3750 0.2500
vt 0.6250 0.5000
vt 0.3750 0.5000
vt 0.6250 0.7500
vt 0.3750 0.7500
vt 0.6250 1.0000
vt 0.3750 1.0000
vt 0.8750 0.0000
vt 0.8750 0.2500
vt 0.1250 0.0000
vt 0.1250 0.2500
vt 0.3750 0.0000
vt 0.6250 0.0000
vt 0.6250 0.2500
vt 0.3750 0.2500
vt 0.6250 0.5000
vt 0.3750 0.5000
vt 0.6250 0.7500
vt 0.3750 0.7500
vt 0.6250 1.0000
vt 0.3750 1.0000
vt 0.8750 0.0000
vt 0.8750 0.2500
vt 0.1250 0.0000
vt 0.1250 0.2500
vt 0.3750 0.0000
vt 0.6250 0.0000
vt 0.6250 0.2500
vt 0.3750 0.2500
vt 0.6250 0.5000
vt 0.3750 0.5000
vt 0.6250 0.7500
vt 0.3750 0.7500
vt 0.6250 1.0000
vt 0.3750 1.0000
vt 0.8750 0.0000
vt 0.8750 0.2500
vt 0.1250 0.0000
vt 0.1250 0.2500
vt 0.3750 0.0000
vt 0.6250 0.0000
vt 0.6250 0.2500
vt 0.3750 0.2500
vt 0.6250 0.5000
vt 0.3750 0.5000
vt 0.6250 0.7500
vt 0.3750 0.7500
vt 0.6250 1.0000
vt 0.3750 1.0000
vt 0.8750 0.0000
vt 0.8750 0.2500
vt 0.1250 0.0000
vt 0.1250 0.2500
vt 0.3750 0.0000
vt 0.6250 0.0000
vt 0.6250 0.2500
vt 0.3750 0.2500
vt 0.6250 0.5000
vt 0.3750 0.5000
vt 0.6250 0.7500
vt 0.3750 0.7500
vt 0.6250 1.0000
vt 0.3750 1.0000
vt 0.8750 0.0000
vt 0.8750 0.2500
vt 0.1250 0.0000
vt 0.1250 0.2500
vt 0.3750 0.0000
vt 0.6250 0.0000
vt 0.6250 0.2500
vt 0.3750 0.2500
vt 0.6250 0.5000
vt 0.3750 0.5000
vt 0.6250 0.7500
vt 0.3750 0.7500
vt 0.6250 1.0000
vt 0.3750 1.0000
vt 0.8750 0.0000
vt 0.8750 0.2500
vt 0.1250 0.0000
vt 0.1250 0.2500
vt 0.3750 0.0000
vt 0.6250 0.0000
vt 0.6250 0.2500
vt 0.3750 0.2500
vt 0.6250 0.5000
vt 0.3750 0.5000
vt 0.6250 0.7500
vt 0.3750 0.7500
vt 0.6250 1.0000
vt 0.3750 1.0000
vt 0.8750 0.0000
vt 0.8750 0.2500
vt 0.1250 0.0000
vt 0.1250 0.2500
vt 0.3750 0.0000
vt 0.6250 0.0000
vt 0.6250 0.2500
vt 0.3750 0.2500
vt 0.6250 0.5000
vt 0.3750 0.5000
vt 0.6250 0.7500
vt 0.3750 0.7500
vt 0.6250 1.0000
vt 0.3750 1.0000
vt 0.8750 0.0000
vt 0.8750 0.2500
vt 0.1250 0.0000
vt 0.1250 0.2500
vt 0.3750 0.0000
vt 0.6250 0.0000
vt 0.6250 0.2500
vt 0.3750 0.2500
vt 0.6250 0.5000
vt 0.3750 0.5000
vt 0.6250 0.7500
vt 0.3750 0.7500
vt 0.6250 1.0000
vt 0.3750 1.0000
vt 0.8750 0.0000
vt 0.8750 0.2500
vt 0.1250 0.0000
vt 0.1250 0.2500
vt 0.3750 0.0000
vt 0.6250 0.0000
vt 0.6250 0.2500
vt 0.3750 0.2500
vt 0.6250 0.5000
vt 0.3750 0.5000
vt 0.6250 0.7500
vt 0.3750 0.7500
vt 0.6250 1.0000
vt 0.3750 1.0000
vt 0.8750 0.0000
vt 0.8750 0.2500
vt 0.1250 0.0000
vt 0.1250 0.2500
vt 0.3750 0.0000
vt 0.6250 0.0000
vt 0.6250 0.2500
vt 0.3750 0.2500
vt 0.6250 0.5000
vt 0.3750 0.5000
vt 0.6250 0.7500
vt 0.3750 0.7500
vt 0.6250 1.0000
vt 0.3750 1.0000
vt 0.8750 0.0000
vt 0.8750 0.2500
vt 0.1250 0.0000
vt 0.1250 0.2500
vt 0.3750 0.0000
vt 0.6250 0.0000
vt 0.6250 0.2500
vt 0.3750 0.2500
vt 0.6250 0.5000
vt 0.3750 0.5000
vt 0.6250 0.7500
vt 0.3750 0.7500
vt 0.6250 1.0000
vt 0.3750 1.0000
vt 0.8750 0.0000
vt 0.8750 0.2500
vt 0.1250 0.0000
vt 0.1250 0.2500
vt 0.3750 0.3125
vt 0.4167 0.3125
vt 0.4167 0.6884
vt 0.3750 0.6884
vt 0.4583 0.3125
vt 0.4583 0.6884
vt 0.5000 0.3125
vt 0.5000 0.6884
vt 0.5417 0.3125
vt 0.5417 0.6884
vt 0.5833 0.3125
vt 0.5833 0.6884
vt 0.6250 0.3125
vt 0.6250 0.6884
vt 0.3750 0.3125
vt 0.4167 0.3125
vt 0.4167 0.6884
vt 0.3750 0.6884
vt 0.4583 0.3125
vt 0.4583 0.6884
vt 0.5000 0.3125
vt 0.5000 0.6884
vt 0.5417 0.3125
vt 0.5417 0.6884
vt 0.5833 0.3125
vt 0.5833 0.6884
vt 0.6250 0.3125
vt 0.6250 0.6884
vt 0.3750 0.3125
vt 0.4167 0.3125
vt 0.4167 0.6884
vt 0.3750 0.6884
vt 0.4583 0.3125
vt 0.4583 0.6884
vt 0.5000 0.3125
vt 0.5000 0.6884
vt 0.5417 0.3125
vt 0.5417 0.6884
vt 0.5833 0.3125
vt 0.5833 0.6884
vt 0.6250 0.3125
vt 0.6250 0.6884
vt 0.3750 0.3125
vt 0.4167 0.3125
vt 0.4167 0.6884
vt 0.3750 0.6884
vt 0.4583 0.3125
vt 0.4583 0.6884
vt 0.5000 0.3125
vt 0.5000 0.6884
vt 0.5417 0.3125
vt 0.5417 0.6884
vt 0.5833 0.3125
vt 0.5833 0.6884
vt 0.6250 0.3125
vt 0.6250 0.6884
vt 0.3750 0.0000
vt 0.6250 0.0000
vt 0.6250 0.2500
vt 0.3750 0.2500
vt 0.6250 0.5000
vt 0.3750 0.5000
vt 0.6250 0.7500
vt 0.3750 0.7500
vt 0.6250 1.0000
vt 0.3750 1.0000
vt 0.8750 0.0000
vt 0.8750 0.2500
vt 0.1250 0.0000
vt 0.1250 0.2500
vt 0.3750 0.0000
vt 0.6250 0.0000
vt 0.6250 0.2500
vt 0.3750 0.2500
vt 0.6250 0.5000
vt 0.3750 0.5000
vt 0.6250 0.7500
vt 0.3750 0.7500
vt 0.6250 1.0000
vt 0.3750 1.0000
vt 0.8750 0.0000
vt 0.8750 0.2500
vt 0.1250 0.0000
vt 0.1250 0.2500
vt 0.3750 0.0000
vt 0.6250 0.0000
vt 0.6250 0.2500
vt 0.3750 0.2500
vt 0.6250 0.5000
vt 0.3750 0.5000
vt 0.6250 0.7500
vt 0.3750 0.7500
vt 0.6250 1.0000
vt 0.3750 1.0000
vt 0.8750 0.0000
vt 0.8750 0.2500
vt 0.1250 0.0000
vt 0.1250 0.2500
vt 0.3750 0.0000
vt 0.6250 0.0000
vt 0.6250 0.2500
vt 0.3750 0.2500
vt 0.6250 0.5000
vt 0.3750 0.5000
vt 0.6250 0.7500
vt 0.3750 0.7500
vt 0.6250 1.0000
vt 0.3750 1.0000
vt 0.8750 0.0000
vt 0.8750 0.2500
vt 0.1250 0.0000
vt 0.1250 0.2500
vt 0.3750 0.0000
vt 0.6250 0.0000
vt 0.6250 0.2500
vt 0.3750 0.2500
vt 0.6250 0.5000
vt 0.3750 0.5000
vt 0.6250 0.7500
vt 0.3750 0.7500
vt 0.6250 1.0000
vt 0.3750 1.0000
vt 0.8750 0.0000
vt 0.8750 0.2500
vt 0.1250 0.0000
vt 0.1250 0.2500
vn 0.0000 0.0000 1.0000
vn -0.6428 0.7660 0.0000
vn 0.0000 0.0000 -1.0000
vn 0.6428 -0.7660 -0.0000
vn 0.7661 0.6427 0.0000
vn -0.7661 -0.6427 0.0000
vn 0.6428 0.7660 0.0000
vn -0.6428 -0.7660 -0.0000
vn 0.7659 -0.6429 -0.0000
vn -0.7659 0.6429 0.0000
vn -0.7658 -0.6431 -0.0000
vn -0.6428 0.7661 0.0000
vn 0.6428 -0.7661 0.0000
vn 0.7659 0.6429 -0.0000
vn -0.7662 -0.6426 -0.0000
vn 0.7662 0.6427 0.0000
vn 0.6427 -0.7661 0.0000
vn -0.7659 -0.6429 -0.0000
vn -0.7661 -0.6428 -0.0000
vn 0.6428 0.7661 0.0000
vn -0.6428 -0.7661 0.0000
vn 0.7661 -0.6427 -0.0000
vn -0.7661 0.6427 -0.0000
vn 0.7663 -0.6425 -0.0000
vn -0.7662 0.6426 -0.0000
vn 0.7660 -0.6429 0.0000
vn 0.7659 -0.6430 0.0000
vn -0.7662 0.6425 -0.0000
vn -0.8660 0.0000 -0.5000
vn -0.8660 -0.0000 0.5000
vn 0.8660 0.0000 0.5000
vn 0.8660 0.0000 -0.5000
vn 0.0000 1.0000 0.0000
vn 0.0000 -1.0000 0.0000
vn 1.0000 0.0000 0.0000
vn -1.0000 0.0000 0.0000
vn -0.7071 0.7071 0.0000
vn 0.0024 -1.0000 -0.0000
vn 0.7071 0.7071 0.0000
vn -0.0024 -1.0000 -0.0000
usemtl Hut_C_roof
s 1
f 49/1/1 50/2/1 51/3/1 52/4/1
f 52/4/2 51/3/2 53/5/2 54/6/2
f 54/6/3 53/5/3 55/7/3 56/8/3
f 56/8/4 55/7/4 50/9/4 49/10/4
f 50/2/5 55/11/5 53/12/5 51/3/5
f 56/13/6 49/1/6 52/4/6 54/14/6
f 89/15/1 90/16/1 91/17/1 92/18/1
f 92/18/7 91/17/7 93/19/7 94/20/7
f 94/20/3 93/19/3 95/21/3 96/22/3
f 96/22/8 95/21/8 90/23/8 89/24/8
f 90/16/9 95/25/9 93/26/9 91/17/9
f 96/27/10 89/15/10 92/18/10 94/28/10
f 97/29/1 98/30/1 99/31/1 100/32/1
f 100/32/2 99/31/2 101/33/2 102/34/2
f 102/34/3 101/33/3 103/35/3 104/36/3
f 104/36/4 103/35/4 98/37/4 97/38/4
f 98/30/5 103/39/5 101/40/5 99/31/5
f 104/41/11 97/29/11 100/32/11 102/42/11
f 105/43/1 106/44/1 107/45/1 108/46/1
f 108/46/12 107/45/12 109/47/12 110/48/12
f 110/48/3 109/47/3 111/49/3 112/50/3
f 112/50/13 111/49/13 106/51/13 105/52/13
f 106/44/5 111/53/5 109/54/5 107/45/5
f 112/55/6 105/43/6 108/46/6 110/56/6
f 113/57/1 114/58/1 115/59/1 116/60/1
f 116/60/2 115/59/2 117/61/2 118/62/2
f 118/62/3 117/61/3 119/63/3 120/64/3
f 120/64/4 119/63/4 114/65/4 113/66/4
f 114/58/5 119/67/5 117/68/5 115/59/5
f 120/69/6 113/57/6 116/60/6 118/70/6
f 121/71/1 122/72/1 123/73/1 124/74/1
f 124/74/12 123/73/12 125/75/12 126/76/12
f 126/76/3 125/75/3 127/77/3 128/78/3
f 128/78/4 127/77/4 122/79/4 121/80/4
f 122/72/14 127/81/14 125/82/14 123/73/14
f 128/83/15 121/71/15 124/74/15 126/84/15
f 129/85/1 130/86/1 131/87/1 132/88/1
f 132/88/2 131/87/2 133/89/2 134/90/2
f 134/90/3 133/89/3 135/91/3 136/92/3
f 136/92/4 135/91/4 130/93/4 129/94/4
f 130/86/16 135/95/16 133/96/16 131/87/16
f 136/97/6 129/85/6 132/88/6 134/98/6
f 137/99/1 138/100/1 139/101/1 140/102/1
f 140/102/12 139/101/12 141/103/12 142/104/12
f 142/104/3 141/103/3 143/105/3 144/106/3
f 144/106/17 143/105/17 138/107/17 137/108/17
f 138/100/5 143/109/5 141/110/5 139/101/5
f 144/111/18 137/99/18 140/102/18 142/112/18
f 145/113/1 146/114/1 147/115/1 148/116/1
f 148/116/2 147/115/2 149/117/2 150/118/2
f 150/118/3 149/117/3 151/119/3 152/120/3
f 152/120/4 151/119/4 146/121/4 145/122/4
f 146/114/5 151/123/5 149/124/5 147/115/5
f 152/125/19 145/113/19 148/116/19 150/126/19
f 153/127/1 154/128/1 155/129/1 156/130/1
f 156/130/20 155/129/20 157/131/20 158/132/20
f 158/132/3 157/131/3 159/133/3 160/134/3
f 160/134/21 159/133/21 154/135/21 153/136/21
f 154/128/22 159/137/22 157/138/22 155/129/22
f 160/139/23 153/127/23 156/130/23 158/140/23
f 161/141/1 162/142/1 163/143/1 164/144/1
f 164/144/7 163/143/7 165/145/7 166/146/7
f 166/146/3 165/145/3 167/147/3 168/148/3
f 168/148/8 167/147/8 162/149/8 161/150/8
f 162/142/24 167/151/24 165/152/24 163/143/24
f 168/153/23 161/141/23 164/144/23 166/154/23
f 169/155/1 170/156/1 171/157/1 172/158/1
f 172/158/7 171/157/7 173/159/7 174/160/7
f 174/160/3 173/159/3 175/161/3 176/162/3
f 176/162/21 175/161/21 170/163/21 169/164/21
f 170/156/9 175/165/9 173/166/9 171/157/9
f 176/167/25 169/155/25 172/158/25 174/168/25
f 177/169/1 178/170/1 179/171/1 180/172/1
f 180/172/7 179/171/7 181/173/7 182/174/7
f 182/174/3 181/173/3 183/175/3 184/176/3
f 184/176/21 183/175/21 178/177/21 177/178/21
f 178/170/26 183/179/26 181/180/26 179/171/26
f 184/181/23 177/169/23 180/172/23 182/182/23
f 185/183/1 186/184/1 187/185/1 188/186/1
f 188/186/7 187/185/7 189/187/7 190/188/7
f 190/188/3 189/187/3 191/189/3 192/190/3
f 192/190/8 191/189/8 186/191/8 185/192/8
f 186/184/27 191/193/27 189/194/27 187/185/27
f 192/195/10 185/183/10 188/186/10 190/196/10
f 193/197/1 194/198/1 195/199/1 196/200/1
f 196/200/7 195/199/7 197/201/7 198/202/7
f 198/202/3 197/201/3 199/203/3 200/204/3
f 200/204/8 199/203/8 194/205/8 193/206/8
f 194/198/22 199/207/22 197/208/22 195/199/22
f 200/209/28 193/197/28 196/200/28 198/210/28
f 201/211/1 202/212/1 203/213/1 204/214/1
f 204/214/20 203/213/20 205/215/20 206/216/20
f 206/216/3 205/215/3 207/217/3 208/218/3
f 208/218/21 207/217/21 202/219/21 201/220/21
f 202/212/22 207/221/22 205/222/22 203/213/22
f 208/223/28 201/211/28 204/214/28 206/224/28
usemtl Hut_C_frame
f 1/225/3 2/226/3 3/227/3 4/228/3
f 2/226/29 5/229/29 6/230/29 3/227/29
f 5/229/30 7/231/30 8/232/30 6/230/30
f 7/231/1 9/233/1 10/234/1 8/232/1
f 9/233/31 11/235/31 12/236/31 10/234/31
f 11/235/32 1/237/32 4/238/32 12/236/32
f 13/239/3 14/240/3 15/241/3 16/242/3
f 14/240/29 17/243/29 18/244/29 15/241/29
f 17/243/30 19/245/30 20/246/30 18/244/30
f 19/245/1 21/247/1 22/248/1 20/246/1
f 21/247/31 23/249/31 24/250/31 22/248/31
f 23/249/32 13/251/32 16/252/32 24/250/32
f 25/253/3 26/254/3 27/255/3 28/256/3
f 26/254/29 29/257/29 30/258/29 27/255/29
f 29/257/30 31/259/30 32/260/30 30/258/30
f 31/259/1 33/261/1 34/262/1 32/260/1
f 33/261/31 35/263/31 36/264/31 34/262/31
f 35/263/32 25/265/32 28/266/32 36/264/32
f 37/267/3 38/268/3 39/269/3 40/270/3
f 38/268/29 41/271/29 42/272/29 39/269/29
f 41/271/30 43/273/30 44/274/30 42/272/30
f 43/273/1 45/275/1 46/276/1 44/274/1
f 45/275/31 47/277/31 48/278/31 46/276/31
f 47/277/32 37/279/32 40/280/32 48/278/32
f 57/281/1 58/282/1 59/283/1 60/284/1
f 60/284/33 59/283/33 61/285/33 62/286/33
f 62/286/3 61/285/3 63/287/3 64/288/3
f 64/288/34 63/287/34 58/289/34 57/290/34
f 58/282/35 63/291/35 61/292/35 59/283/35
f 64/293/36 57/281/36 60/284/36 62/294/36
f 65/295/35 66/296/35 67/297/35 68/298/35
f 68/298/33 67/297/33 69/299/33 70/300/33
f 70/300/36 69/299/36 71/301/36 72/302/36
f 72/302/34 71/301/34 66/303/34 65/304/34
f 66/296/3 71/305/3 69/306/3 67/297/3
f 72/307/1 65/295/1 68/298/1 70/308/1
f 73/309/35 74/310/35 75/311/35 76/312/35
f 76/312/33 75/311/33 77/313/33 78/314/33
f 78/314/36 77/313/36 79/315/36 80/316/36
f 80/316/34 79/315/34 74/317/34 73/318/34
f 74/310/3 79/319/3 77/320/3 75/311/3
f 80/321/1 73/309/1 76/312/1 78/322/1
f 81/323/1 82/324/1 83/325/1 84/326/1
f 84/326/33 83/325/33 85/327/33 86/328/33
f 86/328/3 85/327/3 87/329/3 88/330/3
f 88/330/34 87/329/34 82/331/34 81/332/34
f 82/324/35 87/333/35 85/334/35 83/325/35
f 88/335/36 81/323/36 84/326/36 86/336/36
f 209/337/1 210/338/1 211/339/1 212/340/1
f 212/340/37 211/339/37 213/341/37 214/342/37
f 214/342/3 213/341/3 215/343/3 216/344/3
f 216/344/38 215/343/38 210/345/38 209/346/38
f 210/338/39 215/347/39 213/348/39 211/339/39
f 216/349/40 209/337/40 212/340/40 214/350/40
