# Blender v2.77 (sub 0) OBJ File: 'ASSET_OTHERS.blend'
# www.blender.org
mtllib Barrel_A.mtl
o Barrel_A
v -29.795221 0.050400 -0.564700
v -30.275522 0.050400 -0.913700
v -30.127123 0.050400 -1.370500
v -29.406622 0.050400 -0.847000
v -30.869322 0.050400 -0.913700
v -31.017721 0.050400 -1.370500
v -31.349623 0.050400 -0.564700
v -31.738222 0.050400 -0.847000
v -31.533121 0.050400 0.000000
v -32.013523 0.050400 0.000000
v -31.349623 0.050400 0.564700
v -31.738222 0.050400 0.847000
v -30.869322 0.050400 0.913700
v -31.017721 0.050400 1.370500
v -30.275522 0.050400 0.913700
v -30.127123 0.050400 1.370500
v -29.795221 0.050400 0.564700
v -29.406622 0.050400 0.847000
v -29.611723 0.050400 0.000000
v -29.131323 0.050400 0.000000
v -30.011122 1.010880 -1.727600
v -29.102821 1.010880 -1.067700
v -31.133722 1.010880 -1.727600
v -32.042023 1.010880 -1.067700
v -32.388924 1.010880 0.000000
v -32.042023 1.010880 1.067700
v -31.133722 1.010880 1.727600
v -30.011122 1.010880 1.727600
v -29.102821 1.010880 1.067700
v -28.755922 1.010880 0.000000
v -29.960423 2.343200 -1.883500
v -28.970222 2.343200 -1.164100
v -31.184422 2.343200 -1.883500
v -32.174622 2.343200 -1.164100
v -32.552921 2.343200 0.000000
v -32.174622 2.343200 1.164101
v -31.184422 2.343200 1.883500
v -29.960423 2.343200 1.883500
v -28.970222 2.343200 1.164101
v -28.591923 2.343200 0.000000
v -30.011122 3.633040 -1.727599
v -29.102821 3.633040 -1.067699
v -31.133722 3.633040 -1.727599
v -32.042023 3.633040 -1.067699
v -32.388924 3.633040 0.000001
v -32.042023 3.633040 1.067701
v -31.133722 3.633040 1.727600
v -30.011122 3.633040 1.727600
v -29.102821 3.633040 1.067701
v -28.755922 3.633040 0.000001
v -30.127123 4.635920 -1.370499
v -29.406622 4.635920 -0.846999
v -31.017721 4.635920 -1.370499
v -31.738222 4.635920 -0.846999
v -32.013523 4.635920 0.000001
v -31.738222 4.635920 0.847001
v -31.017721 4.635920 1.370501
v -30.127123 4.635920 1.370501
v -29.406622 4.635920 0.847001
v -29.131323 4.635920 0.000001
v -30.174322 4.635920 -1.225299
v -29.530123 4.635920 -0.757299
v -30.970522 4.635920 -1.225299
v -31.614721 4.635920 -0.757299
v -31.860823 4.635920 0.000001
v -31.614721 4.635920 0.757301
v -30.970522 4.635920 1.225301
v -30.174322 4.635920 1.225301
v -29.530123 4.635920 0.757301
v -29.284021 4.635920 0.000001
v -30.185122 4.537120 -1.192099
v -29.558323 4.537120 -0.736799
v -30.959723 4.537120 -1.192099
v -31.586521 4.537120 -0.736799
v -31.825922 4.537120 0.000001
v -31.586521 4.537120 0.736801
v -30.959723 4.537120 1.192101
v -30.185122 4.537120 1.192101
v -29.558323 4.537120 0.736801
v -29.318922 4.537120 0.000001
v -30.572422 4.537120 0.000001
v -31.572422 4.510931 0.140000
v -31.572422 4.710930 0.140000
v -31.572422 4.510931 -0.140000
v -31.572422 4.710930 -0.140000
v -29.572422 4.510931 0.140000
v -29.572422 4.710930 0.140000
v -29.572422 4.510931 -0.140000
v -29.572422 4.710930 -0.140000
vt 0.0000 0.0000
vt 0.0000 0.0000
vt 0.0000 0.0000
vt 0.0000 0.0000
vt 0.0000 0.0000
vt 0.0000 0.0000
vt 0.0000 0.0000
vt 0.0000 0.0000
vt 0.5843 0.0950
vt 0.5322 0.0572
vt 0.5483 0.0076
vt 0.6264 0.0644
vt 0.4678 0.0572
vt 0.4517 0.0076
vt 0.4157 0.0950
vt 0.3736 0.0644
vt 0.3958 0.1563
vt 0.3438 0.1563
vt 0.4157 0.2175
vt 0.3736 0.2481
vt 0.4678 0.2553
vt 0.4517 0.3049
vt 0.5322 0.2553
vt 0.5483 0.3049
vt 0.5843 0.2175
vt 0.6264 0.2481
vt 0.6042 0.1563
vt 0.6563 0.1563
vt 0.3750 0.3125
vt 0.4000 0.3125
vt 0.4000 0.4065
vt 0.3750 0.4065
vt 0.4250 0.3125
vt 0.4250 0.4065
vt 0.4500 0.3125
vt 0.4500 0.4065
vt 0.4750 0.3125
vt 0.4750 0.4065
vt 0.5000 0.3125
vt 0.5000 0.4065
vt 0.5250 0.3125
vt 0.5250 0.4065
vt 0.5500 0.3125
vt 0.5500 0.4065
vt 0.5750 0.3125
vt 0.5750 0.4065
vt 0.6000 0.3125
vt 0.6000 0.4065
vt 0.6250 0.3125
vt 0.6250 0.4065
vt 0.4000 0.5005
vt 0.3750 0.5005
vt 0.4250 0.5005
vt 0.4500 0.5005
vt 0.4750 0.5005
vt 0.5000 0.5005
vt 0.5250 0.5005
vt 0.5500 0.5005
vt 0.5750 0.5005
vt 0.6000 0.5005
vt 0.6250 0.5005
vt 0.4000 0.5945
vt 0.3750 0.5945
vt 0.4250 0.5945
vt 0.4500 0.5945
vt 0.4750 0.5945
vt 0.5000 0.5945
vt 0.5250 0.5945
vt 0.5500 0.5945
vt 0.5750 0.5945
vt 0.6000 0.5945
vt 0.6250 0.5945
vt 0.4000 0.6884
vt 0.3750 0.6884
vt 0.4250 0.6884
vt 0.4500 0.6884
vt 0.4750 0.6884
vt 0.5000 0.6884
vt 0.5250 0.6884
vt 0.5500 0.6884
vt 0.5750 0.6884
vt 0.6000 0.6884
vt 0.6250 0.6884
vt 0.6264 0.9356
vt 0.5483 0.9924
vt 0.5322 0.9428
vt 0.5843 0.9050
vt 0.4517 0.9924
vt 0.4678 0.9428
vt 0.3736 0.9356
vt 0.4157 0.9050
vt 0.3438 0.8438
vt 0.3958 0.8438
vt 0.3736 0.7519
vt 0.4157 0.7825
vt 0.4517 0.6951
vt 0.4678 0.7447
vt 0.5483 0.6951
vt 0.5322 0.7447
vt 0.6264 0.7519
vt 0.5843 0.7825
vt 0.6563 0.8438
vt 0.6042 0.8438
vt 0.5161 0.8933
vt 0.5421 0.8744
vt 0.4839 0.8933
vt 0.4579 0.8744
vt 0.4479 0.8438
vt 0.4579 0.8131
vt 0.4839 0.7942
vt 0.5161 0.7942
vt 0.5421 0.8131
vt 0.5521 0.8438
vt 0.5000 0.8375
vn -1.0000 0.0000 0.0000
vn 0.0000 0.0000 -1.0000
vn 1.0000 0.0000 0.0000
vn 0.0000 0.0000 1.0000
vn 0.0000 1.0000 0.0000
vn -0.0000 -1.0000 -0.0000
vn 0.5520 -0.3438 -0.7597
vn 0.5519 -0.3438 -0.7598
vn 0.5752 -0.2045 -0.7920
vn 0.5755 -0.2045 -0.7918
vn 0.0001 -0.3438 -0.9390
vn -0.0001 -0.3438 -0.9390
vn -0.0002 -0.2046 -0.9788
vn 0.0002 -0.2046 -0.9788
vn -0.5519 -0.3438 -0.7598
vn -0.5520 -0.3438 -0.7597
vn -0.5755 -0.2045 -0.7918
vn -0.5752 -0.2045 -0.7920
vn -0.8930 -0.3438 -0.2902
vn -0.8931 -0.3438 -0.2901
vn -0.9310 -0.2046 -0.3023
vn -0.9309 -0.2046 -0.3027
vn -0.8931 -0.3438 0.2901
vn -0.8930 -0.3438 0.2902
vn -0.9309 -0.2046 0.3027
vn -0.9310 -0.2046 0.3023
vn -0.5520 -0.3438 0.7597
vn -0.5519 -0.3438 0.7598
vn -0.5752 -0.2045 0.7920
vn -0.5755 -0.2045 0.7918
vn -0.0001 -0.3438 0.9390
vn 0.0001 -0.3438 0.9390
vn 0.0002 -0.2046 0.9788
vn -0.0002 -0.2046 0.9788
vn 0.5519 -0.3438 0.7598
vn 0.5520 -0.3438 0.7597
vn 0.5755 -0.2045 0.7918
vn 0.5752 -0.2045 0.7920
vn 0.8930 -0.3438 0.2902
vn 0.8931 -0.3438 0.2901
vn 0.9310 -0.2046 0.3023
vn 0.9309 -0.2046 0.3027
vn 0.8931 -0.3438 -0.2901
vn 0.8930 -0.3438 -0.2902
vn 0.9309 -0.2046 -0.3027
vn 0.9310 -0.2046 -0.3023
vn 0.5878 0.0004 -0.8090
vn 0.0000 0.0003 -1.0000
vn -0.5878 0.0004 -0.8090
vn -0.9511 0.0003 -0.3090
vn -0.9511 0.0003 0.3090
vn -0.5878 0.0004 0.8090
vn -0.0000 0.0003 1.0000
vn 0.5878 0.0004 0.8090
vn 0.9511 0.0003 0.3090
vn 0.9511 0.0003 -0.3090
vn 0.5752 0.2048 -0.7920
vn 0.5754 0.2048 -0.7918
vn -0.0002 0.2048 -0.9788
vn 0.0002 0.2048 -0.9788
vn -0.5754 0.2048 -0.7918
vn -0.5752 0.2048 -0.7920
vn -0.9309 0.2048 -0.3023
vn -0.9308 0.2048 -0.3026
vn -0.9308 0.2048 0.3026
vn -0.9309 0.2048 0.3023
vn -0.5752 0.2048 0.7920
vn -0.5754 0.2048 0.7918
vn 0.0002 0.2048 0.9788
vn -0.0002 0.2048 0.9788
vn 0.5754 0.2048 0.7918
vn 0.5752 0.2048 0.7920
vn 0.9309 0.2048 0.3023
vn 0.9308 0.2048 0.3026
vn 0.9308 0.2048 -0.3026
vn 0.9309 0.2048 -0.3023
vn 0.5546 0.3309 -0.7635
vn 0.5548 0.3309 -0.7634
vn -0.0001 0.3309 -0.9437
vn 0.0001 0.3309 -0.9437
vn -0.5548 0.3309 -0.7634
vn -0.5546 0.3309 -0.7635
vn -0.8975 0.3309 -0.2915
vn -0.8974 0.3309 -0.2917
vn -0.8974 0.3309 0.2917
vn -0.8975 0.3309 0.2915
vn -0.5546 0.3309 0.7635
vn -0.5548 0.3309 0.7634
vn 0.0001 0.3309 0.9437
vn -0.0001 0.3309 0.9437
vn 0.5548 0.3309 0.7634
vn 0.5546 0.3309 0.7635
vn 0.8975 0.3309 0.2915
vn 0.8974 0.3309 0.2917
vn 0.8974 0.3309 -0.2917
vn 0.8975 0.3309 -0.2915
vn 0.0484 0.9985 -0.0250
vn 0.0169 0.9985 0.0519
vn 0.0245 0.9985 -0.0487
vn -0.0088 0.9985 -0.0538
vn -0.0388 0.9985 -0.0384
vn -0.0539 0.9985 -0.0082
vn -0.0484 0.9985 0.0250
vn -0.0245 0.9985 0.0487
vn 0.0088 0.9985 0.0538
vn 0.0388 0.9985 0.0384
vn -0.7912 0.3277 0.5163
vn -0.3208 0.2957 0.8998
vn 0.1460 0.6729 0.7252
vn -0.3264 0.2207 0.9191
vn 0.2693 0.2957 0.9165
vn 0.5443 0.6729 0.5009
vn 0.7566 0.2956 0.5833
vn 0.7348 0.6729 0.0854
vn 0.9550 0.2955 0.0271
vn 0.6446 0.6729 -0.3629
vn 0.7885 0.2956 -0.5394
vn 0.3083 0.6729 -0.6725
vn 0.3208 0.2957 -0.8998
vn -0.1460 0.6729 -0.7252
vn -0.2693 0.2957 -0.9165
vn -0.5443 0.6729 -0.5009
vn -0.7566 0.2956 -0.5833
vn -0.7348 0.6729 -0.0854
vn -0.9550 0.2955 -0.0271
vn -0.6446 0.6729 0.3629
vn -0.5041 0.7822 -0.3662
vn -0.4672 0.7822 0.4122
vn -0.1357 0.7822 0.6081
vn 0.2477 0.7822 0.5717
vn 0.5366 0.7821 0.3170
vn 0.6203 0.7822 -0.0590
vn 0.4672 0.7822 -0.4122
vn 0.1357 0.7822 -0.6081
vn -0.2477 0.7822 -0.5717
vn -0.5366 0.7821 -0.3170
usemtl Barrel_A_Wood
s off
f 83/1/1 85/2/1 84/3/1 82/4/1
f 85/2/2 89/5/2 88/6/2 84/3/2
f 89/5/3 87/7/3 86/8/3 88/6/3
f 87/7/4 83/1/4 82/4/4 86/8/4
f 87/7/5 89/5/5 85/2/5 83/1/5
s 1
f 1/9/6 2/10/6 3/11/6 4/12/6
f 2/10/6 5/13/6 6/14/6 3/11/6
f 5/13/6 7/15/6 8/16/6 6/14/6
f 7/15/6 9/17/6 10/18/6 8/16/6
f 9/17/6 11/19/6 12/20/6 10/18/6
f 11/19/6 13/21/6 14/22/6 12/20/6
f 13/21/6 15/23/6 16/24/6 14/22/6
f 15/23/6 17/25/6 18/26/6 16/24/6
f 17/25/6 19/27/6 20/28/6 18/26/6
f 19/27/6 1/9/6 4/12/6 20/28/6
f 4/29/7 3/30/8 21/31/9 22/32/10
f 3/30/11 6/33/12 23/34/13 21/31/14
f 6/33/15 8/35/16 24/36/17 23/34/18
f 8/35/19 10/37/20 25/38/21 24/36/22
f 10/37/23 12/39/24 26/40/25 25/38/26
f 12/39/27 14/41/28 27/42/29 26/40/30
f 14/41/31 16/43/32 28/44/33 27/42/34
f 16/43/35 18/45/36 29/46/37 28/44/38
f 18/45/39 20/47/40 30/48/41 29/46/42
f 20/47/43 4/49/44 22/50/45 30/48/46
f 22/32/10 21/31/9 31/51/47 32/52/47
f 21/31/14 23/34/13 33/53/48 31/51/48
f 23/34/18 24/36/17 34/54/49 33/53/49
f 24/36/22 25/38/21 35/55/50 34/54/50
f 25/38/26 26/40/25 36/56/51 35/55/51
f 26/40/30 27/42/29 37/57/52 36/56/52
f 27/42/34 28/44/33 38/58/53 37/57/53
f 28/44/38 29/46/37 39/59/54 38/58/54
f 29/46/42 30/48/41 40/60/55 39/59/55
f 30/48/46 22/50/45 32/61/56 40/60/56
f 32/52/47 31/51/47 41/62/57 42/63/58
f 31/51/48 33/53/48 43/64/59 41/62/60
f 33/53/49 34/54/49 44/65/61 43/64/62
f 34/54/50 35/55/50 45/66/63 44/65/64
f 35/55/51 36/56/51 46/67/65 45/66/66
f 36/56/52 37/57/52 47/68/67 46/67/68
f 37/57/53 38/58/53 48/69/69 47/68/70
f 38/58/54 39/59/54 49/70/71 48/69/72
f 39/59/55 40/60/55 50/71/73 49/70/74
f 40/60/56 32/61/56 42/72/75 50/71/76
f 42/63/58 41/62/57 51/73/77 52/74/78
f 41/62/60 43/64/59 53/75/79 51/73/80
f 43/64/62 44/65/61 54/76/81 53/75/82
f 44/65/64 45/66/63 55/77/83 54/76/84
f 45/66/66 46/67/65 56/78/85 55/77/86
f 46/67/68 47/68/67 57/79/87 56/78/88
f 47/68/70 48/69/69 58/80/89 57/79/90
f 48/69/72 49/70/71 59/81/91 58/80/92
f 49/70/74 50/71/73 60/82/93 59/81/94
f 50/71/76 42/72/75 52/83/95 60/82/96
f 52/84/5 51/85/5 61/86/97 62/87/98
f 51/85/5 53/88/5 63/89/99 61/86/97
f 53/88/5 54/90/5 64/91/100 63/89/99
f 54/90/5 55/92/5 65/93/101 64/91/100
f 55/92/5 56/94/5 66/95/102 65/93/101
f 56/94/5 57/96/5 67/97/103 66/95/102
f 57/96/5 58/98/5 68/99/104 67/97/103
f 58/98/5 59/100/5 69/101/105 68/99/104
f 59/100/5 60/102/5 70/103/106 69/101/105
f 60/102/5 52/84/5 62/87/98 70/103/106
f 62/87/107 61/86/108 71/104/109 72/105/110
f 61/86/108 63/89/111 73/106/112 71/104/109
f 63/89/111 64/91/113 74/107/114 73/106/112
f 64/91/113 65/93/115 75/108/116 74/107/114
f 65/93/115 66/95/117 76/109/118 75/108/116
f 66/95/117 67/97/119 77/110/120 76/109/118
f 67/97/119 68/99/121 78/111/122 77/110/120
f 68/99/121 69/101/123 79/112/124 78/111/122
f 69/101/123 70/103/125 80/113/126 79/112/124
f 70/103/125 62/87/107 72/105/110 80/113/126
usemtl Barrel_A_cover
f 72/105/127 71/104/128 81/114/5
f 71/104/128 73/106/129 81/114/5
f 73/106/129 74/107/130 81/114/5
f 74/107/130 75/108/131 81/114/5
f 75/108/131 76/109/132 81/114/5
f 76/109/132 77/110/133 81/114/5
f 77/110/133 78/111/134 81/114/5
f 78/111/134 79/112/135 81/114/5
f 79/112/135 80/113/136 81/114/5
f 80/113/136 72/105/127 81/114/5
