# Blender v2.77 (sub 0) OBJ File: 'ASSET_OTHERS.blend'
# www.blender.org
mtllib Chest_A.mtl
o Chest_A
v 1.800000 -1.800000 -1.800000
v 1.800000 -1.800000 1.800000
v -1.800000 1.800000 -1.800000
v -1.800000 1.800000 1.800000
v 1.800000 1.800000 1.800000
v 1.800000 1.800000 -1.800000
v -1.800000 -1.800000 -1.800000
v -1.800000 -1.800000 1.800000
v -1.503051 -1.800000 1.503051
v 1.503051 -1.800000 1.503051
v 1.503051 1.800000 1.503051
v -1.503051 1.800000 1.503051
v -1.503051 1.503051 1.800000
v 1.800000 -1.503051 1.503051
v 1.800000 -1.503051 -1.503051
v 1.800000 1.503051 1.503051
v 1.503051 1.800000 -1.503051
v 1.503051 -1.800000 -1.503051
v -1.503051 -1.800000 -1.503051
v 1.800000 1.503051 -1.503051
v -1.503051 1.800000 -1.503051
v -1.503051 1.503051 -1.800000
v -1.503051 -1.503051 -1.800000
v -1.800000 1.503051 1.503051
v -1.800000 1.503051 -1.503051
v -1.800000 -1.503051 1.503051
v -1.503051 -1.503051 1.800000
v 1.503051 1.503051 1.800000
v 1.503051 1.503051 -1.800000
v 1.503051 -1.503051 -1.800000
v -1.800000 -1.503051 -1.503051
v 1.503051 -1.503051 1.800000
v -1.503051 -1.507980 1.503051
v 1.503051 -1.507980 1.503051
v 1.503051 1.507980 1.503051
v -1.503051 1.507980 1.503051
v 1.507980 -1.503051 1.503051
v 1.507980 -1.503051 -1.503051
v 1.507980 1.503051 1.503051
v 1.503051 1.507980 -1.503051
v 1.503051 -1.507980 -1.503051
v -1.503051 -1.507980 -1.503051
v 1.507980 1.503051 -1.503051
v -1.503051 1.507980 -1.503051
v -1.503051 1.503051 -1.507980
v -1.503051 -1.503051 -1.507980
v -1.507980 1.503051 1.503051
v -1.507980 1.503051 -1.503051
v -1.507980 -1.503051 1.503051
v -1.503051 -1.503051 1.507980
v -1.503051 1.503051 1.507980
v 1.503051 1.503051 1.507980
v 1.503051 1.503051 -1.507980
v 1.503051 -1.503051 -1.507980
v -1.507980 -1.503051 -1.503051
v 1.503051 -1.503051 1.507980
v 1.744876 1.620713 1.425251
v 1.744876 -1.454565 -1.650026
v 1.424288 -1.679341 -1.425251
v 1.424288 1.395937 1.650026
v 1.744876 1.395937 1.650026
v 1.744876 -1.679341 -1.425251
v 1.424288 -1.454565 -1.650026
v 1.424288 1.620713 1.425251
v -1.744877 -1.679341 1.425251
v -1.744876 1.395936 -1.650027
v -1.424288 1.620713 -1.425251
v -1.424288 -1.454565 1.650027
v -1.744877 -1.454565 1.650027
v -1.744876 1.620713 -1.425251
v -1.424288 1.395936 -1.650027
v -1.424288 -1.679341 1.425251
v 1.650027 -1.454565 -1.424288
v -1.425251 1.620712 -1.424288
v -1.650027 1.395937 -1.744876
v 1.425250 -1.679341 -1.744876
v 1.425250 -1.679341 -1.424288
v -1.650027 1.395937 -1.424288
v -1.425251 1.620712 -1.744876
v 1.650027 -1.454565 -1.744876
v -1.650027 -1.454565 1.424288
v 1.425251 1.620713 1.424288
v 1.650027 1.395937 1.744876
v -1.425251 -1.679340 1.744876
v -1.425251 -1.679340 1.424288
v 1.650027 1.395937 1.424288
v 1.425251 1.620713 1.744876
v -1.650027 -1.454565 1.744876
v -1.425251 -1.453602 1.650027
v 1.650026 -1.453602 -1.425251
v 1.425251 -1.774191 -1.650027
v -1.650027 -1.774191 1.425251
v -1.650027 -1.453602 1.425251
v 1.425251 -1.453602 -1.650027
v 1.650026 -1.774191 -1.425251
v -1.425251 -1.774191 1.650027
v -1.425251 1.394973 -1.650027
v 1.650026 1.394973 1.425251
v 1.425251 1.715562 1.650027
v -1.650027 1.715562 -1.425251
v -1.650027 1.394973 -1.425251
v 1.425251 1.394973 1.650027
v 1.650027 1.715562 1.425251
v -1.425251 1.715562 -1.650027
vn 0.0000 1.0000 0.0000
vn 0.0000 -1.0000 0.0000
vn 0.0000 0.0000 1.0000
vn 1.0000 0.0000 0.0000
vn 0.0000 0.0000 -1.0000
vn -1.0000 0.0000 0.0000
vn 0.0000 -0.7071 -0.7071
vn 0.0000 -0.7071 0.7071
vn 0.0000 0.7071 0.7071
vn 0.0000 0.7071 -0.7071
vn -0.7071 -0.7071 -0.0000
vn 0.7071 0.7071 -0.0000
vn 0.7071 -0.7071 0.0000
vn -0.7071 0.7071 0.0000
vn -0.7071 -0.0000 -0.7071
vn 0.7071 0.0000 0.7071
vn -0.7071 -0.0000 0.7071
vn 0.7071 -0.0000 -0.7071
usemtl Chest_A_1
s off
f 35//1 40//1 44//1 36//1
f 33//2 42//2 41//2 34//2
f 52//3 51//3 50//3 56//3
f 43//4 39//4 37//4 38//4
f 45//5 53//5 54//5 46//5
f 47//6 48//6 55//6 49//6
usemtl Chest_A_2
f 25//3 31//3 55//3 48//3
f 9//4 19//4 42//4 33//4
f 20//2 16//2 39//2 43//2
f 10//5 9//5 33//5 34//5
f 27//1 32//1 56//1 50//1
f 17//3 21//3 44//3 40//3
f 9//2 10//2 2//2 8//2
f 11//1 12//1 4//1 5//1
f 15//4 14//4 2//4 1//4
f 14//4 16//4 5//4 2//4
f 17//1 11//1 5//1 6//1
f 18//2 19//2 7//2 1//2
f 20//4 15//4 1//4 6//4
f 21//1 17//1 6//1 3//1
f 19//2 9//2 8//2 7//2
f 22//5 23//5 7//5 3//5
f 25//6 24//6 4//6 3//6
f 24//6 26//6 8//6 4//6
f 12//1 21//1 3//1 4//1
f 27//3 13//3 4//3 8//3
f 13//3 28//3 5//3 4//3
f 16//4 20//4 6//4 5//4
f 30//5 29//5 6//5 1//5
f 29//5 22//5 3//5 6//5
f 23//5 30//5 1//5 7//5
f 26//6 31//6 7//6 8//6
f 10//2 18//2 1//2 2//2
f 28//3 32//3 2//3 5//3
f 32//3 27//3 8//3 2//3
f 31//6 25//6 3//6 7//6
f 12//5 11//5 35//5 36//5
f 29//6 30//6 54//6 53//6
f 23//4 22//4 45//4 46//4
f 14//1 15//1 38//1 37//1
f 22//2 29//2 53//2 45//2
f 24//2 25//2 48//2 47//2
f 16//5 14//5 37//5 39//5
f 30//1 23//1 46//1 54//1
f 26//5 24//5 47//5 49//5
f 11//6 17//6 40//6 35//6
f 31//1 26//1 49//1 55//1
f 21//4 12//4 36//4 44//4
f 19//3 18//3 41//3 42//3
f 18//6 10//6 34//6 41//6
f 13//4 27//4 50//4 51//4
f 15//3 20//3 43//3 38//3
f 32//6 28//6 52//6 56//6
f 28//2 13//2 51//2 52//2
f 58//4 57//4 61//4 62//4
f 66//7 71//7 72//7 65//7
f 66//6 65//6 69//6 70//6
f 61//8 60//8 59//8 62//8
f 69//9 68//9 67//9 70//9
f 58//10 63//10 64//10 57//10
f 76//11 77//11 78//11 75//11
f 79//12 74//12 73//12 80//12
f 79//5 80//5 76//5 75//5
f 84//13 85//13 86//13 83//13
f 87//3 88//3 84//3 83//3
f 87//14 82//14 81//14 88//14
f 92//15 93//15 94//15 91//15
f 95//16 90//16 89//16 96//16
f 95//2 96//2 92//2 91//2
f 100//17 101//17 102//17 99//17
f 103//1 104//1 100//1 99//1
f 103//18 98//18 97//18 104//18
