# Blender v2.77 (sub 0) OBJ File: 'ASSET_OTHERS.blend'
# www.blender.org
mtllib Piller_A.mtl
o Piller_A
v -1.405300 -0.000000 21.739214
v 1.405300 -0.000000 21.739214
v 1.023620 1.076140 21.293055
v -1.023620 1.076140 21.293055
v 1.023620 6.929520 21.293055
v -1.023620 6.929520 21.293055
v -1.230840 6.929520 21.500275
v 1.230840 6.929520 21.500275
v 1.230840 8.424780 21.500275
v -1.230840 8.424780 21.500275
v -1.023620 8.424780 21.293055
v 1.023620 8.424780 21.293055
v 1.023620 14.278161 21.293056
v -1.023620 14.278161 21.293056
v 1.405300 15.354300 21.739216
v -1.405300 15.354300 21.739216
v 1.405300 15.354300 18.799656
v -1.405300 15.354300 18.799656
v 1.023620 14.278161 19.245817
v -1.023620 14.278161 19.245817
v 1.023620 8.424780 19.245815
v -1.023620 8.424780 19.245815
v -1.230840 8.424780 19.038595
v 1.230840 8.424780 19.038595
v 1.230840 6.929520 19.038595
v -1.230840 6.929520 19.038595
v -1.023620 6.929520 19.245815
v 1.023620 6.929520 19.245815
v 1.023620 1.076140 19.245813
v -1.023620 1.076140 19.245813
v 1.405300 0.000000 18.799654
v -1.405300 0.000000 18.799654
vt 0.3750 0.0500
vt 0.6250 0.0500
vt 0.6250 0.1000
vt 0.3750 0.1000
vt 0.3750 0.1500
vt 0.6250 0.1500
vt 0.6250 0.2000
vt 0.3750 0.2000
vt 0.3750 0.5500
vt 0.6250 0.5500
vt 0.6250 0.6000
vt 0.3750 0.6000
vt 0.3750 0.6500
vt 0.6250 0.6500
vt 0.6250 0.7000
vt 0.3750 0.7000
vt 0.8750 0.0500
vt 0.8750 0.1000
vt 0.8750 0.1500
vt 0.8750 0.2000
vt 0.1250 0.0500
vt 0.1250 0.1000
vt 0.1250 0.1500
vt 0.1250 0.2000
vt 0.3750 0.0000
vt 0.6250 0.0000
vt 0.3750 0.1000
vt 0.6250 0.1000
vt 0.6250 0.1500
vt 0.3750 0.1500
vt 0.6250 0.2500
vt 0.3750 0.2500
vt 0.6250 0.5000
vt 0.3750 0.5000
vt 0.3750 0.6000
vt 0.6250 0.6000
vt 0.6250 0.6500
vt 0.3750 0.6500
vt 0.6250 0.7500
vt 0.3750 0.7500
vt 0.6250 1.0000
vt 0.3750 1.0000
vt 0.8750 0.0000
vt 0.8750 0.1000
vt 0.8750 0.1500
vt 0.8750 0.2500
vt 0.1250 0.0000
vt 0.1250 0.1000
vt 0.1250 0.1500
vt 0.1250 0.2500
vn 0.0000 0.0858 0.9963
vn 0.0000 0.0000 1.0000
vn -0.0000 -0.0858 0.9963
vn 0.0000 -0.0858 -0.9963
vn 0.0000 0.0000 -1.0000
vn -0.0000 0.0858 -0.9963
vn 0.9971 0.0767 0.0000
vn 1.0000 0.0000 0.0000
vn 0.9971 -0.0767 -0.0000
vn -0.9971 0.0767 -0.0000
vn -1.0000 0.0000 0.0000
vn -0.9971 -0.0767 0.0000
vn 0.0000 0.3830 0.9238
vn 0.0000 -0.3830 0.9238
vn 0.0000 1.0000 0.0000
vn 0.0000 -0.3830 -0.9238
vn 0.0000 0.3830 -0.9238
vn 0.0000 -1.0000 -0.0000
vn 0.9425 0.3343 0.0000
vn 0.9425 -0.3343 0.0000
vn -0.9425 0.3343 0.0000
vn -0.9425 -0.3343 0.0000
usemtl Piller_A_1
s 1
f 4/1/1 3/2/1 5/3/2 6/4/2
f 11/5/2 12/6/2 13/7/3 14/8/3
f 20/9/4 19/10/4 21/11/5 22/12/5
f 27/13/5 28/14/5 29/15/6 30/16/6
f 3/2/7 29/17/7 28/18/8 5/3/8
f 12/6/8 21/19/8 19/20/9 13/7/9
f 30/21/10 4/1/10 6/4/11 27/22/11
f 22/23/11 11/5/11 14/8/12 20/24/12
usemtl Piller_A_2
f 1/25/13 2/26/13 3/2/1 4/1/1
f 7/27/2 8/28/2 9/29/2 10/30/2
f 14/8/3 13/7/3 15/31/14 16/32/14
f 16/32/15 15/31/15 17/33/15 18/34/15
f 18/34/16 17/33/16 19/10/4 20/9/4
f 23/35/5 24/36/5 25/37/5 26/38/5
f 30/16/6 29/15/6 31/39/17 32/40/17
f 32/40/18 31/39/18 2/41/18 1/42/18
f 2/26/19 31/43/19 29/17/7 3/2/7
f 8/28/8 25/44/8 24/45/8 9/29/8
f 13/7/9 19/20/9 17/46/20 15/31/20
f 32/47/21 1/25/21 4/1/10 30/21/10
f 26/48/11 7/27/11 10/30/11 23/49/11
f 20/24/12 14/8/12 16/32/22 18/50/22
f 6/4/18 5/3/18 8/28/18 7/27/18
f 12/6/15 11/5/15 10/30/15 9/29/15
f 22/12/15 21/11/15 24/36/15 23/35/15
f 28/14/18 27/13/18 26/38/18 25/37/18
f 5/3/18 28/18/18 25/44/18 8/28/18
f 21/19/15 12/6/15 9/29/15 24/45/15
f 27/22/18 6/4/18 7/27/18 26/48/18
f 11/5/15 22/23/15 23/49/15 10/30/15
