# Blender v2.77 (sub 0) OBJ File: 'ASSET_OTHERS.blend'
# www.blender.org
mtllib Single_Stone_D.mtl
o Single_Stone_D
v -61.101166 -5.920540 -10.745065
v -62.929764 -5.920540 -11.278665
v -62.761364 -5.469940 -11.682864
v -60.812366 -5.469940 -11.099464
v -63.708164 -5.920540 -10.956064
v -63.828564 -5.469940 -11.076664
v -64.030563 -5.920540 -10.177665
v -63.295364 -5.149740 -9.168864
v -62.755764 -5.788540 -8.156465
v -62.922966 -5.149740 -8.270064
v -61.663166 -5.920540 -7.992865
v -61.435966 -5.469941 -7.822464
v -61.032364 -5.920540 -8.625464
v -60.536964 -5.469940 -8.194864
v -60.334965 -5.920540 -9.093664
v -60.164764 -5.469940 -9.093664
v -62.501766 -5.152140 -11.816264
v -60.930965 -5.152140 -11.171465
v -63.537964 -5.222740 -11.244265
v -63.293365 -5.100140 -8.934864
v -62.605965 -5.029541 -8.134464
v -61.435966 -5.152141 -7.754664
v -60.822563 -5.152141 -8.330864
v -60.246567 -5.152140 -9.093664
v -62.254566 -5.019940 -10.865664
v -61.360966 -4.703140 -10.423465
v -63.109566 -4.972340 -10.085864
v -63.088966 -4.778940 -9.716064
v -62.853367 -4.854540 -9.185265
v -62.309963 -5.019940 -8.605664
v -61.272964 -4.827540 -8.491864
v -60.696964 -4.956540 -9.093664
v -61.983166 -4.630340 -10.115264
vt 0.5000 0.3333
vt 0.1250 0.3333
vt 0.1250 0.5000
vt 0.0000 0.5000
vt 0.2500 0.3333
vt 0.2500 0.5000
vt 0.3750 0.3333
vt 0.3750 0.5000
vt 0.5000 0.3333
vt 0.5000 0.5000
vt 0.6250 0.3333
vt 0.6250 0.5000
vt 0.7500 0.3333
vt 0.7500 0.5000
vt 0.8750 0.3333
vt 0.8750 0.5000
vt 1.0000 0.5000
vt 0.1250 0.6667
vt 0.0000 0.6667
vt 0.2500 0.6667
vt 0.3750 0.6667
vt 0.5000 0.6667
vt 0.6250 0.6667
vt 0.7500 0.6667
vt 0.8750 0.6667
vt 1.0000 0.6667
vt 0.1250 0.8333
vt 0.0000 0.8333
vt 0.2500 0.8333
vt 0.3750 0.8333
vt 0.5000 0.8333
vt 0.6250 0.8333
vt 0.7500 0.8333
vt 0.8750 0.8333
vt 1.0000 0.8333
vt 0.0625 1.0000
vt 0.1875 1.0000
vt 0.3125 1.0000
vt 0.4375 1.0000
vt 0.5625 1.0000
vt 0.6875 1.0000
vt 0.8125 1.0000
vt 0.9375 1.0000
vn 0.2055 -0.6892 -0.6949
vn -0.4027 -0.4445 -0.8002
vn -0.8983 0.4390 0.0182
vn -0.8711 0.0401 0.4896
vn -0.2366 -0.0376 0.9709
vn 0.3887 -0.7063 0.5917
vn 0.5924 -0.6590 0.4635
vn 0.7938 -0.5250 -0.3069
vn 0.3082 -0.3538 -0.8831
vn -0.4890 0.0115 -0.8722
vn -0.7175 0.6940 0.0595
vn -0.7694 0.4416 0.4615
vn -0.7694 0.4415 0.4615
vn -0.3213 -0.1972 0.9262
vn 0.5046 0.3131 0.8046
vn 0.7419 0.5198 0.4235
vn 0.9191 0.2558 -0.2998
vn 0.0202 0.9466 -0.3217
vn -0.1135 0.9833 -0.1420
vn -0.6626 0.7486 -0.0227
vn -0.3584 0.8989 0.2519
vn 0.1144 0.9891 0.0923
vn 0.1143 0.9891 0.0923
vn 0.0066 0.9146 0.4042
vn 0.4391 0.8502 0.2903
vn 0.5066 0.8512 -0.1372
vn -0.1067 0.8977 -0.4275
vn -0.2796 0.8897 -0.3608
vn -0.2721 0.8590 -0.4337
vn -0.0703 0.9827 0.1712
vn 0.0229 0.9668 0.2545
vn -0.2002 0.9583 0.2040
vn 0.2344 0.9720 0.0157
vn 0.1665 0.9805 0.1039
vn -0.0000 -1.0000 -0.0000
vn -0.0631 -0.9957 0.0684
usemtl Single_Stone_D
s 1
f 1/1/1 2/2/1 3/3/1 4/4/1
f 2/2/2 5/5/2 6/6/2 3/3/2
f 5/5/3 7/7/3 8/8/3 6/6/3
f 7/7/4 9/9/4 10/10/4 8/8/4
f 9/9/5 11/11/5 12/12/5 10/10/5
f 11/11/6 13/13/6 14/14/6 12/12/6
f 13/13/7 15/15/7 16/16/7 14/14/7
f 15/15/8 1/1/8 4/17/8 16/16/8
f 4/4/9 3/3/9 17/18/9 18/19/9
f 3/3/10 6/6/10 19/20/10 17/18/10
f 6/6/11 8/8/11 20/21/11 19/20/11
f 20/21/12 8/8/12 10/10/13 21/22/13
f 10/10/14 12/12/14 22/23/14 21/22/14
f 12/12/15 14/14/15 23/24/15 22/23/15
f 14/14/16 16/16/16 24/25/16 23/24/16
f 16/16/17 4/17/17 18/26/17 24/25/17
f 18/19/18 17/18/18 25/27/18 26/28/18
f 17/18/19 19/20/19 27/29/19 25/27/19
f 20/21/20 28/30/20 27/29/20 19/20/20
f 20/21/21 21/22/21 29/31/21 28/30/21
f 30/32/22 29/31/23 21/22/22 22/23/23
f 22/23/24 23/24/24 31/33/24 30/32/24
f 23/24/25 24/25/25 32/34/25 31/33/25
f 24/25/26 18/26/26 26/35/26 32/34/26
f 26/28/27 25/27/27 33/36/27
f 25/27/28 27/29/28 33/37/28
f 27/29/29 28/30/29 33/38/29
f 28/30/30 29/31/30 33/39/30
f 29/31/31 30/32/31 33/40/31
f 30/32/32 31/33/32 33/41/32
f 31/33/33 32/34/33 33/42/33
f 32/34/34 26/35/34 33/43/34
f 2/2/35 1/1/35 15/15/35 13/13/35
f 7/7/36 5/5/36 11/11/36 9/9/36
f 5/5/35 2/2/35 13/13/35 11/11/35
