# Blender v2.77 (sub 0) OBJ File: 'ASSET_OTHERS.blend'
# www.blender.org
mtllib Single_Stone_C.mtl
o Single_Stone_C
v -57.254398 -0.450600 -19.580399
v -58.654999 -0.450600 -20.513397
v -58.654999 0.000000 -20.683598
v -57.133801 0.000000 -19.700798
v -59.433399 -0.450600 -20.190798
v -59.553799 0.000000 -20.311398
v -59.755798 -0.450600 -19.412397
v -59.519199 0.320200 -18.539598
v -58.811199 -0.130400 -17.760998
v -59.146801 0.320200 -17.640598
v -57.161201 -0.450600 -17.227598
v -57.161201 -0.000000 -17.057198
v -56.757599 -0.450600 -17.860199
v -56.262199 -0.000000 -17.429598
v -56.060200 -0.450600 -18.328398
v -55.889999 -0.000000 -18.328398
v -58.654999 0.450600 -20.651598
v -57.084000 0.450600 -20.006798
v -59.263199 0.247200 -20.478998
v -59.348999 0.567400 -18.539598
v -58.661598 0.770800 -17.739199
v -57.161201 0.450600 -16.989397
v -56.294399 0.450600 -17.374998
v -55.971802 0.450600 -18.328398
v -58.407799 0.780600 -19.700998
v -57.514198 1.097400 -19.258799
v -58.607800 0.828200 -19.320599
v -58.587002 1.021400 -18.950798
v -58.351398 0.945800 -18.419998
v -57.807999 0.780600 -17.840399
v -56.571800 0.972800 -17.490198
v -56.422199 0.843800 -18.328398
v -58.136398 1.170200 -18.950798
vt 0.5000 0.3333
vt 0.1250 0.3333
vt 0.1250 0.5000
vt 0.0000 0.5000
vt 0.2500 0.3333
vt 0.2500 0.5000
vt 0.3750 0.3333
vt 0.3750 0.5000
vt 0.5000 0.3333
vt 0.5000 0.5000
vt 0.6250 0.3333
vt 0.6250 0.5000
vt 0.7500 0.3333
vt 0.7500 0.5000
vt 0.8750 0.3333
vt 0.8750 0.5000
vt 1.0000 0.5000
vt 0.1250 0.6667
vt 0.0000 0.6667
vt 0.2500 0.6667
vt 0.3750 0.6667
vt 0.5000 0.6667
vt 0.6250 0.6667
vt 0.7500 0.6667
vt 0.8750 0.6667
vt 1.0000 0.6667
vt 0.1250 0.8333
vt 0.0000 0.8333
vt 0.2500 0.8333
vt 0.3750 0.8333
vt 0.5000 0.8333
vt 0.6250 0.8333
vt 0.7500 0.8333
vt 0.8750 0.8333
vt 1.0000 0.8333
vt 0.0625 1.0000
vt 0.1875 1.0000
vt 0.3125 1.0000
vt 0.4375 1.0000
vt 0.5625 1.0000
vt 0.6875 1.0000
vt 0.8125 1.0000
vt 0.9375 1.0000
vn 0.5187 -0.3245 -0.7910
vn -0.3613 -0.3297 -0.8722
vn -0.9758 0.1741 -0.1320
vn -0.7773 -0.4337 0.4558
vn -0.3328 -0.3996 0.8542
vn 0.4623 -0.6537 0.5992
vn 0.5924 -0.6590 0.4635
vn 0.6963 -0.3111 -0.6468
vn 0.4468 -0.2828 -0.8488
vn -0.3344 -0.0437 -0.9414
vn -0.7464 0.6540 -0.1231
vn -0.6632 0.6700 0.3334
vn -0.3172 0.2024 0.9265
vn 0.3921 -0.1100 0.9133
vn 0.9319 0.0967 0.3496
vn 0.7790 -0.1766 -0.6016
vn 0.1035 0.8670 -0.4874
vn -0.3426 0.9069 -0.2451
vn -0.5065 0.8385 -0.2007
vn -0.3671 0.9151 0.1667
vn 0.0256 0.9511 0.3079
vn -0.0544 0.7225 0.6893
vn 0.7635 0.6267 0.1561
vn 0.5459 0.7420 -0.3891
vn -0.1066 0.8977 -0.4276
vn -0.3857 0.8685 -0.3115
vn -0.2826 0.8566 -0.4317
vn -0.3024 0.9157 0.2646
vn -0.0952 0.9302 0.3544
vn -0.2473 0.8891 0.3851
vn 0.2240 0.9685 -0.1091
vn 0.1568 0.9841 0.0838
vn -0.0000 -1.0000 -0.0000
vn -0.1382 -0.9767 0.1641
usemtl Single_Stone_C
s 1
f 1/1/1 2/2/1 3/3/1 4/4/1
f 2/2/2 5/5/2 6/6/2 3/3/2
f 5/5/3 7/7/3 8/8/3 6/6/3
f 7/7/4 9/9/4 10/10/4 8/8/4
f 9/9/5 11/11/5 12/12/5 10/10/5
f 11/11/6 13/13/6 14/14/6 12/12/6
f 13/13/7 15/15/7 16/16/7 14/14/7
f 15/15/8 1/1/8 4/17/8 16/16/8
f 4/4/9 3/3/9 17/18/9 18/19/9
f 3/3/10 6/6/10 19/20/10 17/18/10
f 6/6/11 8/8/11 20/21/11 19/20/11
f 8/8/12 10/10/12 21/22/12 20/21/12
f 10/10/13 12/12/13 22/23/13 21/22/13
f 12/12/14 14/14/14 23/24/14 22/23/14
f 14/14/15 16/16/15 24/25/15 23/24/15
f 16/16/16 4/17/16 18/26/16 24/25/16
f 18/19/17 17/18/17 25/27/17 26/28/17
f 17/18/18 19/20/18 27/29/18 25/27/18
f 19/20/19 20/21/19 28/30/19 27/29/19
f 20/21/20 21/22/20 29/31/20 28/30/20
f 21/22/21 22/23/21 30/32/21 29/31/21
f 22/23/22 23/24/22 31/33/22 30/32/22
f 23/24/23 24/25/23 32/34/23 31/33/23
f 24/25/24 18/26/24 26/35/24 32/34/24
f 26/28/25 25/27/25 33/36/25
f 25/27/26 27/29/26 33/37/26
f 27/29/27 28/30/27 33/38/27
f 28/30/28 29/31/28 33/39/28
f 29/31/29 30/32/29 33/40/29
f 30/32/30 31/33/30 33/41/30
f 31/33/31 32/34/31 33/42/31
f 32/34/32 26/35/32 33/43/32
f 2/2/33 1/1/33 15/15/33 13/13/33
f 7/7/34 5/5/34 11/11/34 9/9/34
f 5/5/33 2/2/33 13/13/33 11/11/33
