# Blender v2.77 (sub 0) OBJ File: 'ASSET_OTHERS.blend'
# www.blender.org
mtllib Tresure_A.mtl
o Tresure_A
v -77.613312 -0.000000 2.362200
v -74.463715 -0.000000 2.362200
v -74.463715 2.362200 2.362200
v -77.613312 2.362200 2.362200
v -74.463715 2.362200 -2.362200
v -77.613312 2.362200 -2.362200
v -74.463715 0.000000 -2.362200
v -77.613312 0.000000 -2.362200
v -74.674713 2.835001 -2.362200
v -75.251114 3.180800 -2.362200
v -75.251114 3.180799 2.362200
v -74.674713 2.835000 2.362200
v -76.038513 3.307600 -2.362200
v -76.038513 3.307600 2.362200
v -76.825912 3.180800 -2.362200
v -76.825912 3.180799 2.362200
v -77.402313 2.835001 -2.362200
v -77.402313 2.835000 2.362200
v -77.613312 2.362401 -2.362200
v -77.613312 2.362400 2.362200
v -74.463715 2.362401 -2.362200
v -74.463715 2.362400 2.362200
v -76.038513 2.362401 -2.362200
v -76.038513 2.362400 2.362200
v -75.178711 0.275600 -1.649400
v -74.391312 0.275600 -1.649400
v -74.391312 0.511800 -1.649400
v -75.178711 0.511800 -1.649400
v -74.391312 0.511800 -2.436800
v -75.178711 0.511800 -2.436800
v -74.391312 0.275600 -2.436800
v -75.178711 0.275600 -2.436800
v -75.178711 1.825000 -1.649400
v -74.391312 1.825000 -1.649400
v -74.391312 2.061200 -1.649400
v -75.178711 2.061200 -1.649400
v -74.391312 2.061200 -2.436800
v -75.178711 2.061200 -2.436800
v -74.391312 1.825000 -2.436800
v -75.178711 1.825000 -2.436800
v -75.178711 0.275600 2.431000
v -74.391312 0.275600 2.431000
v -74.391312 0.511800 2.431000
v -75.178711 0.511800 2.431000
v -74.391312 0.511800 1.643600
v -75.178711 0.511800 1.643600
v -74.391312 0.275600 1.643600
v -75.178711 0.275600 1.643600
v -75.178711 1.825000 2.431000
v -74.391312 1.825000 2.431000
v -74.391312 2.061199 2.431000
v -75.178711 2.061199 2.431000
v -74.391312 2.061200 1.643600
v -75.178711 2.061200 1.643600
v -74.391312 1.825000 1.643600
v -75.178711 1.825000 1.643600
v -77.682716 0.275600 -1.649400
v -76.895309 0.275600 -1.649400
v -76.895309 0.511800 -1.649400
v -77.682716 0.511800 -1.649400
v -76.895309 0.511800 -2.436800
v -77.682716 0.511800 -2.436800
v -76.895309 0.275600 -2.436800
v -77.682716 0.275600 -2.436800
v -77.682716 1.825000 -1.649400
v -76.895309 1.825000 -1.649400
v -76.895309 2.061200 -1.649400
v -77.682716 2.061200 -1.649400
v -76.895309 2.061200 -2.436800
v -77.682716 2.061200 -2.436800
v -76.895309 1.825000 -2.436800
v -77.682716 1.825000 -2.436800
v -77.682716 0.275600 2.431000
v -76.895309 0.275600 2.431000
v -76.895309 0.511800 2.431000
v -77.682716 0.511800 2.431000
v -76.895309 0.511800 1.643600
v -77.682716 0.511800 1.643600
v -76.895309 0.275600 1.643600
v -77.682716 0.275600 1.643600
v -77.682716 1.825000 2.431000
v -76.895309 1.825000 2.431000
v -76.895309 2.061199 2.431000
v -77.682716 2.061199 2.431000
v -76.895309 2.061200 1.643600
v -77.682716 2.061200 1.643600
v -76.895309 1.825000 1.643600
v -77.682716 1.825000 1.643600
v -74.463310 2.056400 0.258800
v -74.463310 1.859600 0.258800
v -74.384712 1.859600 0.258800
v -74.384712 2.056400 0.258800
v -74.463310 2.056400 0.103200
v -74.384712 2.056400 0.103200
v -74.463310 1.724200 0.310800
v -74.384712 1.724200 0.310800
v -74.384712 1.921200 0.155400
v -74.463310 2.118000 0.000000
v -74.384712 2.118000 0.000000
v -74.463310 1.341600 0.184400
v -74.384712 1.341600 0.184400
v -74.384712 1.724200 0.155400
v -74.384712 1.962800 0.000000
v -74.384712 1.921200 0.064400
v -74.463310 2.063800 -0.099400
v -74.384712 2.063800 -0.099400
v -74.463310 1.224800 0.184400
v -74.384712 1.224800 0.184400
v -74.384712 1.381600 0.155400
v -74.384712 1.724200 0.067600
v -74.384712 1.891800 0.109400
v -74.384712 1.840400 0.044400
v -74.384712 1.921200 -0.064400
v -74.384712 1.921200 -0.155400
v -74.463310 2.063800 -0.254800
v -74.384712 2.063800 -0.254800
v -74.463310 1.224800 0.092200
v -74.384712 1.224800 0.092200
v -74.384712 1.381600 0.000000
v -74.384712 1.685400 0.075400
v -74.384712 1.609000 0.000000
v -74.384712 1.724200 -0.067600
v -74.384712 1.724200 -0.155400
v -74.384712 1.891800 -0.109400
v -74.384712 1.840400 -0.044400
v -74.384712 1.866800 -0.254800
v -74.463310 1.866800 -0.254800
v -74.463310 1.147200 0.000000
v -74.384712 1.147200 0.000000
v -74.384712 1.381600 -0.155400
v -74.384712 1.685400 -0.075400
v -74.384712 1.724200 -0.310800
v -74.463310 1.724200 -0.310800
v -74.463310 1.224800 -0.092200
v -74.384712 1.224800 -0.092200
v -74.384712 1.341600 -0.184400
v -74.463310 1.341600 -0.184400
v -74.463310 1.224800 -0.184400
v -74.384712 1.224800 -0.184400
v -74.463310 1.891800 -0.109400
v -74.463310 1.840400 -0.044400
v -74.463310 1.724200 -0.067600
v -74.463310 1.685400 -0.075400
v -74.463310 1.962800 0.000000
v -74.463310 1.921200 -0.064400
v -74.463310 1.609000 0.000000
v -74.463310 1.891800 0.109400
v -74.463310 1.921200 0.064400
v -74.463310 1.685400 0.075400
v -74.463310 1.840400 0.044400
v -74.463310 1.724200 0.067600
v -77.613312 2.295093 -2.362200
v -74.463715 2.295093 -2.362200
v -77.613312 2.295092 2.362200
v -74.463715 2.295092 2.362200
v -77.574127 2.297550 2.303418
v -77.574127 2.359740 2.303418
v -74.502899 2.359740 2.303418
v -74.502899 2.297550 2.303418
v -77.574127 2.297552 -2.303417
v -77.574127 2.359741 -2.303417
v -74.502899 2.359741 -2.303417
v -74.502899 2.297552 -2.303417
vt 0.6250 0.1250
vt 0.8750 0.1250
vt 0.8750 0.1575
vt 0.6250 0.1575
vt 0.3750 0.2500
vt 0.6250 0.2500
vt 0.6250 0.5000
vt 0.3750 0.5000
vt 0.3750 0.6250
vt 0.6250 0.6250
vt 0.6250 0.7500
vt 0.3750 0.7500
vt 0.6250 1.0000
vt 0.3750 1.0000
vt 0.6250 0.5325
vt 0.3750 0.5325
vt 0.3750 0.1250
vt 0.3750 0.1575
vt 0.3750 0.3125
vt 0.3958 0.3125
vt 0.3958 0.6884
vt 0.3750 0.6884
vt 0.4167 0.3125
vt 0.4167 0.6884
vt 0.4375 0.3125
vt 0.4375 0.6884
vt 0.4583 0.3125
vt 0.4583 0.6884
vt 0.4792 0.3125
vt 0.4792 0.6884
vt 0.6042 0.3125
vt 0.6250 0.3125
vt 0.6250 0.6884
vt 0.6042 0.6884
vt 0.5781 0.0209
vt 0.6353 0.0781
vt 0.5000 0.1500
vt 0.5000 0.0000
vt 0.4219 0.0209
vt 0.3647 0.0781
vt 0.3438 0.1563
vt 0.6563 0.1563
vt 0.6353 0.9219
vt 0.5781 0.9791
vt 0.5000 0.8375
vt 0.5000 1.0000
vt 0.4219 0.9791
vt 0.3647 0.9219
vt 0.3438 0.8438
vt 0.6563 0.8438
vt 0.5417 0.3125
vt 0.5417 0.6884
vt 0.1250 0.0000
vt 0.3750 0.0000
vt 0.1250 0.1250
vt 0.6250 0.0000
vt 0.8750 0.0000
vt 0.3750 0.5925
vt 0.6250 0.5925
vt 0.3750 0.2175
vt 0.6250 0.2175
vt 0.8750 0.2175
vt 0.8750 0.2500
vt 0.1250 0.1575
vt 0.1250 0.2175
vt 0.1250 0.2500
vt 0.3750 0.0000
vt 0.6250 0.0000
vt 0.6250 0.2500
vt 0.3750 0.2500
vt 0.6250 0.5000
vt 0.3750 0.5000
vt 0.6250 0.7500
vt 0.3750 0.7500
vt 0.6250 1.0000
vt 0.3750 1.0000
vt 0.8750 0.0000
vt 0.8750 0.2500
vt 0.1250 0.0000
vt 0.1250 0.2500
vt 0.3750 0.0000
vt 0.6250 0.0000
vt 0.6250 0.2500
vt 0.3750 0.2500
vt 0.6250 0.5000
vt 0.3750 0.5000
vt 0.6250 0.7500
vt 0.3750 0.7500
vt 0.6250 1.0000
vt 0.3750 1.0000
vt 0.8750 0.0000
vt 0.8750 0.2500
vt 0.1250 0.0000
vt 0.1250 0.2500
vt 0.3750 0.0000
vt 0.6250 0.0000
vt 0.6250 0.2500
vt 0.3750 0.2500
vt 0.6250 0.5000
vt 0.3750 0.5000
vt 0.6250 0.7500
vt 0.3750 0.7500
vt 0.6250 1.0000
vt 0.3750 1.0000
vt 0.8750 0.0000
vt 0.8750 0.2500
vt 0.1250 0.0000
vt 0.1250 0.2500
vt 0.3750 0.0000
vt 0.6250 0.0000
vt 0.6250 0.2500
vt 0.3750 0.2500
vt 0.6250 0.5000
vt 0.3750 0.5000
vt 0.6250 0.7500
vt 0.3750 0.7500
vt 0.6250 1.0000
vt 0.3750 1.0000
vt 0.8750 0.0000
vt 0.8750 0.2500
vt 0.1250 0.0000
vt 0.1250 0.2500
vt 0.3750 0.0000
vt 0.6250 0.0000
vt 0.6250 0.2500
vt 0.3750 0.2500
vt 0.6250 0.5000
vt 0.3750 0.5000
vt 0.6250 0.7500
vt 0.3750 0.7500
vt 0.6250 1.0000
vt 0.3750 1.0000
vt 0.8750 0.0000
vt 0.8750 0.2500
vt 0.1250 0.0000
vt 0.1250 0.2500
vt 0.3750 0.0000
vt 0.6250 0.0000
vt 0.6250 0.2500
vt 0.3750 0.2500
vt 0.6250 0.5000
vt 0.3750 0.5000
vt 0.6250 0.7500
vt 0.3750 0.7500
vt 0.6250 1.0000
vt 0.3750 1.0000
vt 0.8750 0.0000
vt 0.8750 0.2500
vt 0.1250 0.0000
vt 0.1250 0.2500
vt 0.3750 0.0000
vt 0.6250 0.0000
vt 0.6250 0.2500
vt 0.3750 0.2500
vt 0.6250 0.5000
vt 0.3750 0.5000
vt 0.6250 0.7500
vt 0.3750 0.7500
vt 0.6250 1.0000
vt 0.3750 1.0000
vt 0.8750 0.0000
vt 0.8750 0.2500
vt 0.1250 0.0000
vt 0.1250 0.2500
vt 0.3750 0.0000
vt 0.6250 0.0000
vt 0.6250 0.2500
vt 0.3750 0.2500
vt 0.6250 0.5000
vt 0.3750 0.5000
vt 0.6250 0.7500
vt 0.3750 0.7500
vt 0.6250 1.0000
vt 0.3750 1.0000
vt 0.8750 0.0000
vt 0.8750 0.2500
vt 0.1250 0.0000
vt 0.1250 0.2500
vt 0.3750 0.0000
vt 0.4375 0.0000
vt 0.4375 0.2500
vt 0.3750 0.2500
vt 0.3125 0.0000
vt 0.3125 0.2500
vt 0.5000 0.0000
vt 0.5000 0.2500
vt 0.4375 0.3125
vt 0.3750 0.3125
vt 0.2500 0.0000
vt 0.2500 0.2500
vt 0.5625 0.0000
vt 0.5625 0.2500
vt 0.5000 0.3125
vt 0.4242 0.3750
vt 0.3750 0.3750
vt 0.4375 0.3491
vt 0.1875 0.0000
vt 0.1875 0.2500
vt 0.6250 0.0000
vt 0.6250 0.2500
vt 0.5625 0.3125
vt 0.5000 0.3478
vt 0.4468 0.3310
vt 0.4632 0.3572
vt 0.4375 0.4009
vt 0.4375 0.4375
vt 0.3750 0.4375
vt 0.1250 0.0000
vt 0.1250 0.2500
vt 0.6875 0.0000
vt 0.6875 0.2500
vt 0.6250 0.3125
vt 0.5625 0.3750
vt 0.5071 0.3447
vt 0.5210 0.3750
vt 0.5000 0.4022
vt 0.5000 0.4375
vt 0.4468 0.4190
vt 0.4632 0.3928
vt 0.4375 0.5000
vt 0.3750 0.5000
vt 0.4375 0.7500
vt 0.3750 0.7500
vt 0.7500 0.0000
vt 0.7500 0.2500
vt 0.6250 0.3750
vt 0.5625 0.4375
vt 0.5071 0.4053
vt 0.5000 0.5000
vt 0.5000 0.7500
vt 0.8125 0.0000
vt 0.8125 0.2500
vt 0.6250 0.4375
vt 0.5625 0.5000
vt 0.5625 0.7500
vt 0.8750 0.0000
vt 0.8750 0.2500
vt 0.6250 0.5000
vt 0.6250 0.7500
vt 0.4063 0.3946
vt 0.3750 0.3946
vt 0.3750 0.5858
vt 0.4062 0.5858
vt 0.4375 0.3946
vt 0.4297 0.3946
vt 0.4297 0.5858
vt 0.4375 0.5858
vt 0.6250 0.3946
vt 0.6121 0.3946
vt 0.5938 0.3946
vt 0.5938 0.5858
vt 0.6121 0.5858
vt 0.6250 0.5858
vt 0.4688 0.3946
vt 0.4688 0.5858
vt 0.5754 0.3946
vt 0.5625 0.3946
vt 0.5625 0.5858
vt 0.5754 0.5858
vt 0.5000 0.3946
vt 0.5000 0.5858
vt 0.5313 0.3946
vt 0.5313 0.5858
vt 0.5078 0.3946
vt 0.5078 0.5858
vn 0.9392 0.3433 0.0000
vn 0.5619 0.8272 0.0000
vn 0.0000 1.0000 0.0000
vn 0.0000 0.5204 -0.8539
vn 0.0000 0.0000 -1.0000
vn 0.0000 -1.0000 -0.0000
vn 0.0000 -0.9991 -0.0418
vn 0.0000 -0.7922 -0.6102
vn 0.0000 0.5204 0.8539
vn 0.0000 0.7922 0.6102
vn 0.7071 0.7071 0.0000
vn 0.2588 0.9659 0.0000
vn -0.2588 0.9659 0.0000
vn -0.7071 0.7071 0.0000
vn -0.9659 0.2588 0.0000
vn 0.9659 0.2588 0.0000
vn 0.0000 0.0000 1.0000
vn -1.0000 0.0000 0.0000
vn -0.9392 0.3433 0.0000
vn 1.0000 0.0000 0.0000
vn 0.0000 0.7922 -0.6102
vn 0.0000 -0.7922 0.6102
vn 0.0000 -0.9991 0.0418
vn 0.5619 -0.8272 -0.0000
vn 0.0626 -0.9980 -0.0000
vn -0.5619 0.8272 0.0000
vn -0.5619 -0.8272 -0.0000
vn -0.0626 -0.9980 -0.0000
vn 0.0000 0.1552 0.9879
vn 0.0000 0.9728 0.2315
vn 0.0000 -0.1419 0.9899
vn 0.0000 0.9993 0.0362
vn 0.0000 -0.2454 0.9694
vn 0.0000 0.9781 -0.2081
vn 1.0000 -0.0001 0.0000
vn 0.0000 -0.9218 0.3877
vn 1.0000 0.0001 0.0000
vn 0.0000 0.1629 -0.9866
vn 0.0000 -0.1328 -0.9911
vn 0.0001 -0.1328 -0.9911
vn 0.0000 -0.9218 -0.3877
vn 0.0000 -0.2454 -0.9694
vn 0.0000 0.7844 0.6203
vn -0.0000 -0.1972 0.9804
vn -0.0002 -0.8388 0.5444
vn 0.0000 -0.8388 0.5444
vn 0.0001 -0.8388 0.5444
vn -0.0000 0.7021 0.7121
vn -0.0002 -0.8388 -0.5444
vn 0.0000 -0.8388 -0.5444
vn 0.0002 -0.8388 -0.5444
vn 0.0000 0.7021 -0.7121
vn 0.0000 0.7844 -0.6203
vn -0.0000 -0.1971 -0.9804
vn 0.0000 -0.1972 -0.9804
usemtl Tresure_A_wood
s 1
f 155/1/1 153/2/1 163/3/2 159/4/2
f 4/5/3 3/6/3 5/7/3 6/8/3
f 152/9/4 153/10/4 7/11/5 8/12/5
f 8/12/6 7/11/6 2/13/6 1/14/6
f 6/8/7 5/7/7 162/15/8 161/16/8
f 154/17/9 155/1/9 159/4/10 156/18/10
f 9/19/11 10/20/11 11/21/11 12/22/11
f 10/20/12 13/23/12 14/24/12 11/21/12
f 13/23/13 15/25/13 16/26/13 14/24/13
f 15/25/14 17/27/14 18/28/14 16/26/14
f 17/27/15 19/29/15 20/30/15 18/28/15
f 21/31/16 9/32/16 12/33/16 22/34/16
f 10/35/5 9/36/5 23/37/5
f 13/38/5 10/35/5 23/37/5
f 15/39/5 13/38/5 23/37/5
f 17/40/5 15/39/5 23/37/5
f 19/41/5 17/40/5 23/37/5
f 9/36/5 21/42/5 23/37/5
f 12/43/17 11/44/17 24/45/17
f 11/44/17 14/46/17 24/45/17
f 14/46/17 16/47/17 24/45/17
f 16/47/17 18/48/17 24/45/17
f 18/48/17 20/49/17 24/45/17
f 22/50/17 12/43/17 24/45/17
f 20/30/6 19/29/6 23/51/6 24/52/6
f 24/52/6 23/51/6 21/31/6 22/34/6
f 8/53/18 1/54/18 154/17/19 152/55/19
f 2/56/20 7/57/20 153/2/1 155/1/1
f 1/54/17 2/56/17 155/1/9 154/17/9
f 160/58/21 163/59/21 153/10/4 152/9/4
f 157/60/22 158/61/22 3/6/23 4/5/23
f 158/61/24 162/62/24 5/63/25 3/6/25
f 152/55/19 154/17/19 156/18/26 160/64/26
f 163/59/21 160/58/21 161/16/8 162/15/8
f 157/60/27 161/65/27 160/64/26 156/18/26
f 162/62/24 158/61/24 159/4/2 163/3/2
f 158/61/22 157/60/22 156/18/10 159/4/10
f 161/65/27 157/60/27 4/5/28 6/66/28
usemtl Tresure_A_metal
f 25/67/17 26/68/17 27/69/17 28/70/17
f 28/70/3 27/69/3 29/71/3 30/72/3
f 30/72/5 29/71/5 31/73/5 32/74/5
f 32/74/6 31/73/6 26/75/6 25/76/6
f 26/68/20 31/77/20 29/78/20 27/69/20
f 32/79/18 25/67/18 28/70/18 30/80/18
f 33/81/17 34/82/17 35/83/17 36/84/17
f 36/84/3 35/83/3 37/85/3 38/86/3
f 38/86/5 37/85/5 39/87/5 40/88/5
f 40/88/6 39/87/6 34/89/6 33/90/6
f 34/82/20 39/91/20 37/92/20 35/83/20
f 40/93/18 33/81/18 36/84/18 38/94/18
f 41/95/17 42/96/17 43/97/17 44/98/17
f 44/98/3 43/97/3 45/99/3 46/100/3
f 46/100/5 45/99/5 47/101/5 48/102/5
f 48/102/6 47/101/6 42/103/6 41/104/6
f 42/96/20 47/105/20 45/106/20 43/97/20
f 48/107/18 41/95/18 44/98/18 46/108/18
f 49/109/17 50/110/17 51/111/17 52/112/17
f 52/112/3 51/111/3 53/113/3 54/114/3
f 54/114/5 53/113/5 55/115/5 56/116/5
f 56/116/6 55/115/6 50/117/6 49/118/6
f 50/110/20 55/119/20 53/120/20 51/111/20
f 56/121/18 49/109/18 52/112/18 54/122/18
f 57/123/17 58/124/17 59/125/17 60/126/17
f 60/126/3 59/125/3 61/127/3 62/128/3
f 62/128/5 61/127/5 63/129/5 64/130/5
f 64/130/6 63/129/6 58/131/6 57/132/6
f 58/124/20 63/133/20 61/134/20 59/125/20
f 64/135/18 57/123/18 60/126/18 62/136/18
f 65/137/17 66/138/17 67/139/17 68/140/17
f 68/140/3 67/139/3 69/141/3 70/142/3
f 70/142/5 69/141/5 71/143/5 72/144/5
f 72/144/6 71/143/6 66/145/6 65/146/6
f 66/138/20 71/147/20 69/148/20 67/139/20
f 72/149/18 65/137/18 68/140/18 70/150/18
f 73/151/17 74/152/17 75/153/17 76/154/17
f 76/154/3 75/153/3 77/155/3 78/156/3
f 78/156/5 77/155/5 79/157/5 80/158/5
f 80/158/6 79/157/6 74/159/6 73/160/6
f 74/152/20 79/161/20 77/162/20 75/153/20
f 80/163/18 73/151/18 76/154/18 78/164/18
f 81/165/17 82/166/17 83/167/17 84/168/17
f 84/168/3 83/167/3 85/169/3 86/170/3
f 86/170/5 85/169/5 87/171/5 88/172/5
f 88/172/6 87/171/6 82/173/6 81/174/6
f 82/166/20 87/175/20 85/176/20 83/167/20
f 88/177/18 81/165/18 84/168/18 86/178/18
f 89/179/17 90/180/29 91/181/29 92/182/17
f 93/183/30 89/179/3 92/182/3 94/184/30
f 90/180/29 95/185/31 96/186/31 91/181/29
f 92/182/20 91/181/20 97/187/20 94/188/20
f 98/189/32 93/183/30 94/184/30 99/190/32
f 95/185/31 100/191/33 101/192/33 96/186/31
f 91/181/20 96/186/20 102/193/20 97/187/20
f 103/194/20 99/195/20 94/188/20 97/187/20
f 103/194/20 97/187/20 104/196/20
f 105/197/34 98/189/32 99/190/32 106/198/34
f 100/191/33 107/199/17 108/200/17 101/192/33
f 96/186/20 101/192/20 109/201/20 102/193/20
f 97/187/20 102/193/20 110/202/35 111/203/20
f 110/202/35 112/204/20 111/203/20
f 97/187/20 111/203/20 104/196/20
f 113/205/20 114/206/20 106/207/20 99/195/20
f 113/205/20 99/195/20 103/194/20
f 115/208/3 105/197/34 106/198/34 116/209/3
f 107/199/6 117/210/36 118/211/36 108/200/6
f 101/192/20 108/200/20 118/212/20 109/201/20
f 102/193/20 109/201/20 119/213/20 120/214/35
f 119/213/20 121/215/20 120/214/35
f 102/193/20 120/214/35 110/202/35
f 122/216/20 123/217/20 114/206/20 124/218/20
f 114/206/20 113/205/20 124/218/20
f 122/216/20 124/218/20 125/219/20
f 106/207/20 114/206/20 126/220/20 116/221/37
f 116/221/5 126/220/38 127/222/38 115/223/5
f 117/210/36 128/224/6 129/225/6 118/211/36
f 109/201/20 118/212/20 129/226/20 119/213/20
f 119/213/20 130/227/20 123/217/20 131/228/20
f 123/217/20 122/216/20 131/228/20
f 121/215/20 119/213/20 131/228/20
f 114/206/20 123/217/20 132/229/20 126/220/20
f 126/220/38 132/229/39 133/230/40 127/222/38
f 128/224/6 134/231/41 135/232/41 129/225/6
f 119/213/20 129/226/20 135/233/20 130/227/20
f 123/217/20 130/227/20 136/234/20 132/229/20
f 132/229/39 136/234/42 137/235/42 133/230/40
f 134/231/41 138/236/6 139/237/6 135/232/41
f 130/227/20 135/233/20 139/238/20 136/234/20
f 136/234/42 139/238/5 138/239/5 137/235/42
f 125/240/43 124/241/43 140/242/43 141/243/43
f 131/244/44 122/245/44 125/240/44 141/243/44
f 131/244/44 141/243/44 142/246/44 143/247/44
f 124/248/45 113/249/46 103/250/46 144/251/47
f 124/248/45 144/251/47 145/252/46 140/253/46
f 121/254/48 131/244/48 143/247/48 146/255/48
f 103/250/49 104/256/50 111/257/50 147/258/51
f 103/250/49 147/258/51 148/259/50 144/251/50
f 120/260/52 121/254/52 146/255/52 149/261/52
f 111/257/53 112/262/53 150/263/53 147/258/53
f 112/262/54 110/264/54 120/260/54 149/261/55
f 112/262/54 149/261/55 151/265/54 150/263/54
