# Blender v2.77 (sub 0) OBJ File: 'coin.blend'
# www.blender.org
mtllib coin.mtl
o Cylinder
v 0.119733 0.000000 -1.000000
v 0.119733 -0.382683 -0.923880
v -0.085561 -0.625901 0.259257
v -0.085561 -0.677470 0.000000
v 0.119733 0.382683 -0.923880
v 0.119733 0.000000 -0.677470
v 0.119733 -0.259257 -0.625901
v 0.119733 -0.707107 -0.707107
v -0.085561 -0.625901 -0.259257
v -0.085561 -0.479044 -0.479044
v -0.085561 0.231569 0.231569
v -0.085561 0.231569 -0.231569
v 0.119733 0.707107 -0.707107
v 0.119733 0.259256 -0.625901
v 0.085561 0.000000 -0.677470
v 0.085561 -0.259257 -0.625901
v 0.119733 -0.479044 -0.479044
v 0.119733 -0.923880 -0.382683
v -0.085561 -0.231569 -0.231569
v -0.085561 0.625901 -0.259257
v -0.085561 0.677470 0.000000
v -0.085561 0.625901 0.259257
v -0.085561 0.479044 0.479044
v -0.085561 0.259256 0.625901
v -0.085561 -0.000000 0.677470
v -0.085561 -0.259257 0.625901
v -0.085561 -0.479044 0.479044
v -0.085561 -0.231569 0.231569
v -0.085561 0.479044 -0.479044
v -0.085561 -0.259256 -0.625901
v -0.119733 -0.479044 -0.479044
v -0.119733 -0.923880 -0.382684
v -0.119734 0.923879 -0.382683
v -0.119733 0.479044 -0.479044
v 0.119733 0.923879 -0.382684
v 0.119733 0.479044 -0.479044
v 0.085561 0.259256 -0.625901
v 0.085561 -0.479044 -0.479044
v 0.085561 0.231569 0.231569
v 0.085561 0.479044 0.479044
v 0.085561 0.259256 0.625901
v 0.085561 -0.000000 0.677470
v 0.085561 -0.259257 0.625901
v 0.085561 -0.479044 0.479044
v 0.085561 -0.625901 0.259257
v 0.085561 -0.677470 0.000000
v 0.085561 -0.625901 -0.259257
v 0.085561 0.231569 -0.231569
v 0.085561 -0.231569 -0.231569
v 0.085561 -0.231569 0.231569
v 0.085561 0.479044 -0.479044
v 0.085561 0.625901 -0.259257
v 0.085561 0.677470 -0.000000
v 0.085561 0.625901 0.259257
v 0.119733 -0.625901 -0.259257
v 0.119733 -1.000000 0.000000
v -0.085561 0.259256 -0.625901
v -0.085561 -0.000000 -0.677470
v -0.119733 -0.259256 -0.625901
v -0.119733 -0.707107 -0.707107
v -0.119734 0.707107 -0.707107
v -0.119733 0.259256 -0.625901
v -0.119733 -0.000000 -0.677470
v -0.119733 -0.382683 -0.923880
v -0.119733 0.382683 -0.923880
v -0.119733 -0.000000 -1.000000
v 0.119733 1.000000 -0.000000
v 0.119733 0.625901 -0.259257
v 0.119733 0.677470 -0.000000
v 0.119733 0.625901 0.259257
v 0.119733 0.479044 0.479044
v 0.119733 0.259256 0.625901
v 0.119733 -0.000000 0.677470
v 0.119733 -0.259257 0.625901
v 0.119733 -0.479044 0.479044
v 0.119733 -0.625901 0.259257
v 0.119733 -0.677470 0.000000
v 0.119733 -0.923880 0.382683
v 0.119733 0.923880 0.382684
v 0.119733 0.707107 0.707107
v 0.119733 0.382683 0.923880
v 0.119733 -0.000000 1.000000
v 0.119733 -0.382683 0.923880
v 0.119733 -0.707107 0.707107
v -0.119733 0.625901 -0.259257
v -0.119733 1.000000 0.000000
v -0.119733 -1.000000 0.000000
v -0.119733 -0.625901 -0.259257
v -0.119733 -0.677470 0.000000
v -0.119733 -0.625901 0.259257
v -0.119733 -0.479044 0.479044
v -0.119733 -0.259257 0.625901
v -0.119733 -0.000000 0.677470
v -0.119733 0.259256 0.625901
v -0.119733 0.479044 0.479044
v -0.119733 0.625901 0.259257
v -0.119733 0.677470 0.000000
v -0.119733 0.923879 0.382684
v -0.119733 -0.923880 0.382684
v -0.119733 -0.707107 0.707107
v -0.119733 -0.382683 0.923880
v -0.119733 -0.000000 1.000000
v -0.119733 0.382683 0.923880
v -0.119733 0.707107 0.707107
v -0.031733 0.211422 0.211422
v 0.031733 0.211422 0.211422
v 0.031733 0.211422 -0.211422
v -0.031733 0.211422 -0.211422
v 0.031733 -0.211422 -0.211422
v -0.031733 -0.211422 -0.211422
v -0.031733 -0.211422 0.211422
v 0.031733 -0.211422 0.211422
v -0.000000 -0.000000 -1.040279
v -0.000000 -0.398097 -0.961092
v 0.000000 -0.735588 -0.735588
v -0.000000 0.735588 -0.735588
v -0.000000 0.398097 -0.961092
v 0.000000 -0.961092 -0.398098
v -0.000000 0.961092 -0.398098
v 0.000000 -1.040279 0.000000
v 0.000000 -0.961092 0.398098
v -0.000000 1.040279 0.000000
v 0.000000 -0.735588 0.735588
v 0.000000 -0.398097 0.961092
v 0.000000 -0.000000 1.040279
v 0.000000 0.398097 0.961092
v -0.000000 0.735588 0.735588
v -0.000000 0.961092 0.398098
vn -1.0000 -0.0000 0.0000
vn 1.0000 0.0000 -0.0000
vn 0.0000 0.0000 -1.0000
vn 0.7784 0.0000 -0.6277
vn 0.7784 -0.2402 -0.5799
vn 0.0000 -0.3827 -0.9239
vn 0.0000 0.3827 -0.9239
vn 0.7784 0.2402 -0.5799
vn 0.7784 -0.4439 -0.4439
vn 0.0000 -0.7071 -0.7071
vn 0.0000 0.7071 -0.7071
vn 0.7784 0.4439 -0.4439
vn 0.7537 0.2515 0.6071
vn 0.7537 0.0000 0.6571
vn 0.6657 0.0000 0.7462
vn 0.6657 0.2855 0.6894
vn 0.7784 -0.5799 -0.2402
vn 0.0000 -0.9239 -0.3827
vn -0.7537 -0.6571 0.0000
vn -0.7537 -0.6071 0.2515
vn -0.6657 -0.6894 0.2855
vn -0.6657 -0.7462 0.0000
vn -0.7537 -0.6071 -0.2515
vn -0.6657 -0.6894 -0.2855
vn 0.0000 0.9239 -0.3827
vn 0.7784 0.5799 -0.2402
vn 0.7537 -0.2515 0.6071
vn 0.6657 -0.2855 0.6894
vn 0.7537 0.4646 0.4646
vn 0.6657 0.5276 0.5276
vn 0.7784 -0.6277 0.0000
vn 0.0000 -1.0000 0.0000
vn -0.7537 -0.4646 -0.4646
vn -0.6657 -0.5276 -0.5276
vn -0.7537 -0.2515 -0.6071
vn -0.6657 -0.2855 -0.6894
vn -0.7537 0.0000 -0.6571
vn -0.6657 0.0000 -0.7462
vn -0.7537 0.2515 -0.6071
vn -0.6657 0.2855 -0.6894
vn -0.7537 0.4646 -0.4646
vn -0.6657 0.5276 -0.5276
vn -0.7537 0.6071 -0.2515
vn -0.6657 0.6894 -0.2855
vn -0.7537 0.6571 0.0000
vn -0.6657 0.7462 0.0000
vn -0.7537 0.6071 0.2515
vn -0.6657 0.6894 0.2855
vn -0.7537 0.4646 0.4646
vn -0.6657 0.5276 0.5276
vn -0.7537 -0.4646 0.4646
vn -0.6657 -0.5276 0.5276
vn -0.7537 0.2515 0.6071
vn -0.6657 0.2855 0.6894
vn 0.0000 1.0000 0.0000
vn 0.7784 0.6277 0.0000
vn 0.7537 -0.4646 0.4646
vn 0.6657 -0.5276 0.5276
vn 0.7537 0.6071 0.2515
vn 0.6657 0.6894 0.2855
vn 0.7537 -0.6071 0.2515
vn 0.6657 -0.6894 0.2855
vn 0.7537 -0.6571 0.0000
vn 0.6657 -0.7462 0.0000
vn 0.7537 -0.6071 -0.2515
vn 0.6657 -0.6894 -0.2855
vn 0.7537 -0.4646 -0.4646
vn 0.6657 -0.5276 -0.5276
vn 0.7537 -0.2515 -0.6071
vn 0.6657 -0.2855 -0.6894
vn 0.7537 0.0000 -0.6571
vn 0.6657 0.0000 -0.7462
vn 0.7537 0.2515 -0.6071
vn 0.6657 0.2855 -0.6894
vn 0.7537 0.4646 -0.4646
vn 0.6657 0.5276 -0.5276
vn 0.7537 0.6071 -0.2515
vn 0.6657 0.6894 -0.2855
vn 0.7537 0.6571 0.0000
vn 0.6657 0.7462 0.0000
vn 0.7784 -0.5799 0.2402
vn 0.0000 -0.9239 0.3827
vn -0.7537 -0.2515 0.6071
vn -0.6657 -0.2855 0.6894
vn -0.7537 0.0000 0.6571
vn -0.6657 0.0000 0.7462
vn 0.0000 0.9239 0.3827
vn 0.7784 0.5799 0.2402
vn 0.7784 -0.4439 0.4439
vn 0.0000 -0.7071 0.7071
vn 0.7784 -0.2402 0.5799
vn 0.0000 -0.3827 0.9239
vn 0.7784 0.0000 0.6277
vn 0.0000 0.0000 1.0000
vn 0.7784 0.2402 0.5799
vn 0.0000 0.3827 0.9239
vn 0.7784 0.4439 0.4439
vn 0.0000 0.7071 0.7071
vn -0.7784 0.4439 0.4439
vn -0.7784 0.5799 0.2402
vn -0.7784 0.2402 0.5799
vn -0.7784 0.0000 0.6277
vn -0.7784 -0.2402 0.5799
vn -0.7784 -0.4439 0.4439
vn -0.7784 -0.5799 0.2402
vn -0.7784 0.6277 0.0000
vn -0.7784 -0.6277 0.0000
vn -0.7784 0.5799 -0.2402
vn -0.7784 -0.5799 -0.2402
vn -0.7784 0.4439 -0.4439
vn -0.7784 -0.4439 -0.4439
vn -0.7784 0.2402 -0.5799
vn -0.7784 -0.2402 -0.5799
vn -0.7784 0.0000 -0.6277
vn 0.9597 -0.1988 -0.1988
vn 0.9597 0.1988 -0.1988
vn 0.2711 0.6806 -0.6806
vn 0.2711 -0.6806 -0.6806
vn 0.9597 0.1988 0.1988
vn 0.9597 -0.1988 0.1988
vn 0.2711 -0.6806 0.6806
vn 0.2711 0.6806 0.6806
vn -0.2711 -0.6806 -0.6806
vn -0.2711 0.6806 -0.6806
vn -0.9597 0.1988 -0.1988
vn -0.9597 -0.1988 -0.1988
vn -0.2711 0.6806 0.6806
vn -0.9597 0.1988 0.1988
vn -0.2711 -0.6806 0.6806
vn -0.9597 -0.1988 0.1988
usemtl Coin_1
s off
f 93//1 92//1 101//1 102//1
f 6//2 7//2 2//2 1//2
f 92//1 91//1 100//1 101//1
f 91//1 90//1 99//1 100//1
f 90//1 89//1 87//1 99//1
f 14//2 6//2 1//2 5//2
f 7//2 17//2 8//2 2//2
f 89//1 88//1 32//1 87//1
f 85//1 97//1 86//1 33//1
f 36//2 14//2 5//2 13//2
f 17//2 55//2 18//2 8//2
f 88//1 31//1 60//1 32//1
f 34//1 85//1 33//1 61//1
f 68//2 36//2 13//2 35//2
f 55//2 77//2 56//2 18//2
f 31//1 59//1 64//1 60//1
f 62//1 34//1 61//1 65//1
f 59//1 63//1 66//1 64//1
f 63//1 62//1 65//1 66//1
f 69//2 68//2 35//2 67//2
f 70//2 69//2 67//2 79//2
f 71//2 70//2 79//2 80//2
f 72//2 71//2 80//2 81//2
f 73//2 72//2 81//2 82//2
f 74//2 73//2 82//2 83//2
f 75//2 74//2 83//2 84//2
f 76//2 75//2 84//2 78//2
f 77//2 76//2 78//2 56//2
f 94//1 93//1 102//1 103//1
f 95//1 94//1 103//1 104//1
f 96//1 95//1 104//1 98//1
f 97//1 96//1 98//1 86//1
s 1
f 113//3 1//4 2//5 114//6
f 117//7 5//8 1//4 113//3
f 114//6 2//5 8//9 115//10
f 116//11 13//12 5//8 117//7
f 7//13 6//14 15//15 16//16
f 115//10 8//9 18//17 118//18
f 97//19 85//20 20//21 21//22
f 96//23 97//19 21//22 22//24
f 119//25 35//26 13//12 116//11
f 6//14 14//27 37//28 15//15
f 17//29 7//13 16//16 38//30
f 118//18 18//17 56//31 120//32
f 95//33 96//23 22//24 23//34
f 94//35 95//33 23//34 24//36
f 93//37 94//35 24//36 25//38
f 92//39 93//37 25//38 26//40
f 91//41 92//39 26//40 27//42
f 90//43 91//41 27//42 3//44
f 89//45 90//43 3//44 4//46
f 88//47 89//45 4//46 9//48
f 31//49 88//47 9//48 10//50
f 85//20 34//51 29//52 20//21
f 59//53 31//49 10//50 30//54
f 122//55 67//56 35//26 119//25
f 14//27 36//57 51//58 37//28
f 55//59 17//29 38//30 47//60
f 36//57 68//61 52//62 51//58
f 68//61 69//63 53//64 52//62
f 69//63 70//65 54//66 53//64
f 70//65 71//67 40//68 54//66
f 71//67 72//69 41//70 40//68
f 72//69 73//71 42//72 41//70
f 73//71 74//73 43//74 42//72
f 74//73 75//75 44//76 43//74
f 75//75 76//77 45//78 44//76
f 76//77 77//79 46//80 45//78
f 77//79 55//59 47//60 46//80
f 120//32 56//31 78//81 121//82
f 34//51 62//83 57//84 29//52
f 63//85 59//53 30//54 58//86
f 62//83 63//85 58//86 57//84
f 128//87 79//88 67//56 122//55
f 121//82 78//81 84//89 123//90
f 123//90 84//89 83//91 124//92
f 124//92 83//91 82//93 125//94
f 125//94 82//93 81//95 126//96
f 126//96 81//95 80//97 127//98
f 127//98 80//97 79//88 128//87
f 104//99 127//98 128//87 98//100
f 103//101 126//96 127//98 104//99
f 102//102 125//94 126//96 103//101
f 101//103 124//92 125//94 102//102
f 100//104 123//90 124//92 101//103
f 99//105 121//82 123//90 100//104
f 98//100 128//87 122//55 86//106
f 87//107 120//32 121//82 99//105
f 86//106 122//55 119//25 33//108
f 32//109 118//18 120//32 87//107
f 33//108 119//25 116//11 61//110
f 60//111 115//10 118//18 32//109
f 61//110 116//11 117//7 65//112
f 64//113 114//6 115//10 60//111
f 65//112 117//7 113//3 66//114
f 66//114 113//3 114//6 64//113
usemtl Coin_2
s off
f 47//2 49//2 46//2
f 50//2 46//2 49//2
f 42//2 50//2 39//2
f 50//2 45//2 46//2
f 11//1 22//1 21//1
f 25//1 11//1 28//1
f 11//1 21//1 12//1
f 20//1 12//1 21//1
f 39//2 41//2 42//2
f 42//2 43//2 50//2
f 50//2 44//2 45//2
f 48//2 52//2 53//2
f 39//2 40//2 41//2
f 49//2 16//2 15//2
f 49//2 38//2 16//2
f 53//2 54//2 39//2
f 39//2 48//2 53//2
f 15//2 37//2 48//2
f 48//2 49//2 15//2
f 48//2 51//2 52//2
f 50//2 43//2 44//2
f 39//2 54//2 40//2
f 49//2 47//2 38//2
f 48//2 37//2 51//2
f 28//1 26//1 25//1
f 25//1 24//1 11//1
f 11//1 23//1 22//1
f 19//1 9//1 4//1
f 28//1 27//1 26//1
f 12//1 57//1 58//1
f 12//1 29//1 57//1
f 4//1 3//1 28//1
f 28//1 19//1 4//1
f 58//1 30//1 19//1
f 19//1 12//1 58//1
f 19//1 10//1 9//1
f 11//1 24//1 23//1
f 28//1 3//1 27//1
f 12//1 20//1 29//1
f 19//1 30//1 10//1
s 1
f 39//115 50//116 112//117 106//118
f 49//119 48//120 107//121 109//122
f 48//120 39//115 106//118 107//121
f 50//116 49//119 109//122 112//117
f 105//123 111//124 28//125 11//126
f 111//124 110//127 19//128 28//125
f 110//127 108//129 12//130 19//128
f 110//127 111//124 112//117 109//122
f 111//124 105//123 106//118 112//117
f 108//129 110//127 109//122 107//121
f 105//123 108//129 107//121 106//118
f 108//129 105//123 11//126 12//130
