# Blender v2.77 (sub 0) OBJ File: 'ASSET_TREES.blend'
# www.blender.org
mtllib Bush_A.mtl
o Bush_A
v 1.956795 -0.051114 -18.534998
v -0.842702 -0.049896 -16.464783
v -2.827940 -0.064175 -20.841940
v -1.274048 -0.073392 -25.587286
v 1.683073 -0.065320 -24.161476
v 1.807598 1.945518 -16.795273
v -1.149521 2.363099 -18.222755
v -1.444297 2.162917 -23.816879
v 1.311647 1.546028 -25.816050
v 3.340436 1.487246 -21.507233
v 1.385089 2.547801 -21.257612
v 0.605820 -0.047422 -16.848444
v 2.095545 -0.056714 -21.380684
v -2.206583 -0.055099 -18.204435
v -2.455000 -0.069136 -23.574728
v 0.192987 -0.069653 -25.520237
v 3.080580 0.940913 -19.836931
v 2.909578 0.832255 -23.128733
v 0.525435 1.436526 -15.836676
v 2.167893 1.163665 -17.048300
v -2.382671 1.806263 -19.244953
v -1.212724 1.681977 -16.675716
v -1.640985 1.474852 -25.325388
v -2.544225 1.735210 -22.552073
v 1.724040 0.894480 -25.672693
v -0.014120 1.139930 -26.511734
v 2.982590 1.797648 -18.798578
v 0.339474 2.296628 -16.861555
v -1.567955 2.440244 -20.995195
v -0.129034 1.929299 -25.445917
v 2.683368 1.532150 -24.088337
v 1.841282 2.452976 -18.664877
v 2.726789 2.122015 -21.409388
v 0.103144 2.698423 -19.503923
v -0.085595 2.519164 -22.766953
v 1.525300 2.120761 -23.927441
v 1.963353 2.533728 -18.821093
v 1.937613 2.581061 -19.009922
v 2.956497 1.993779 -19.296021
v 2.982237 1.946446 -19.107191
v 2.297947 2.457266 -19.617283
v 2.463253 2.361984 -19.663700
v 2.197519 2.473470 -19.337610
v 2.629710 2.224356 -19.458967
v 2.621904 2.070241 -18.499830
v 2.456597 2.165523 -18.453413
v 2.128864 2.497057 -19.221889
v 2.196161 2.373305 -18.728197
v 2.558602 2.190092 -18.984999
v 2.387838 2.288520 -18.937050
v 2.532012 2.238987 -19.180063
v 2.361248 2.337415 -19.132113
v 2.290139 2.303151 -18.658144
v 2.722331 2.054037 -18.779501
v 2.723689 2.154202 -19.388914
v 2.790986 2.030450 -18.895222
v 0.085793 2.720893 -20.920338
v 0.053046 2.704499 -21.028452
v 0.724178 2.610365 -21.217459
v 0.756925 2.626759 -21.109344
v 0.249623 2.622743 -21.386751
v 0.358509 2.607471 -21.417418
v 0.203728 2.656099 -21.223326
v 0.488409 2.616169 -21.303499
v 0.560349 2.708515 -20.751043
v 0.451462 2.723787 -20.720379
v 0.166274 2.671676 -21.155058
v 0.251891 2.714537 -20.872395
v 0.478140 2.666208 -21.028894
v 0.365659 2.681985 -20.997217
v 0.444312 2.649273 -21.140579
v 0.331831 2.665050 -21.108900
v 0.321562 2.715089 -20.834297
v 0.606243 2.675159 -20.914471
v 0.558080 2.616721 -21.265400
v 0.643697 2.659582 -20.982737
v 1.579991 2.424001 -22.347225
v 1.579962 2.395158 -22.465643
v 2.303809 2.199900 -22.418262
v 2.303838 2.228742 -22.299845
v 1.883091 2.238904 -22.751526
v 2.000530 2.207224 -22.743839
v 1.788327 2.301471 -22.605844
v 2.095369 2.218646 -22.585745
v 2.000709 2.384997 -22.013962
v 1.883270 2.416676 -22.021648
v 1.730571 2.331242 -22.551374
v 1.730647 2.406650 -22.241774
v 2.002573 2.310485 -22.317610
v 1.881257 2.343210 -22.325550
v 2.002543 2.280691 -22.439938
v 1.881227 2.313416 -22.447878
v 1.788431 2.405255 -22.179743
v 2.095473 2.322429 -22.159643
v 2.153153 2.217251 -22.523714
v 2.153229 2.292659 -22.214113
v -0.741344 2.158275 -24.295658
v -0.767414 2.130641 -24.411465
v -0.037710 2.170934 -24.585342
v -0.011641 2.198567 -24.469536
v -0.529062 2.076174 -24.783291
v -0.410673 2.082711 -24.811501
v -0.591193 2.106341 -24.611979
v -0.281667 2.123432 -24.685734
v -0.249992 2.253034 -24.097712
v -0.368381 2.246497 -24.069500
v -0.636607 2.116719 -24.541134
v -0.568449 2.188967 -24.238358
v -0.314914 2.182253 -24.395256
v -0.437211 2.175501 -24.366114
v -0.341843 2.153708 -24.514887
v -0.464141 2.146955 -24.485744
v -0.497388 2.205777 -24.195269
v -0.187862 2.222867 -24.269024
v -0.210606 2.140241 -24.642643
v -0.142448 2.212489 -24.339867
v -2.498339 2.002134 -21.700722
v -2.511926 1.950327 -21.858940
v -1.680652 2.502878 -22.111254
v -1.667064 2.554684 -21.953035
v -2.198803 2.048023 -22.373119
v -2.063935 2.137671 -22.414055
v -2.290247 2.042106 -22.137136
v -1.937635 2.276487 -22.244162
v -1.980187 2.456987 -21.438856
v -2.115056 2.367341 -21.397921
v -2.349906 2.023492 -22.039169
v -2.314382 2.158940 -21.625507
v -2.012817 2.325567 -21.845409
v -2.152138 2.232961 -21.803123
v -2.026853 2.272050 -22.008854
v -2.166174 2.179443 -21.966566
v -2.241355 2.228524 -21.567816
v -1.888744 2.462904 -21.674841
v -1.864608 2.346071 -22.186468
v -1.829085 2.481519 -21.772808
v -0.589233 2.535962 -18.796513
v -0.578705 2.560838 -18.961351
v 0.439461 2.688233 -18.877094
v 0.428933 2.663356 -18.712254
v -0.125034 2.678428 -19.351641
v 0.040157 2.699098 -19.337971
v -0.271887 2.629835 -19.151245
v 0.160000 2.683873 -19.115505
v -0.024738 2.545766 -18.321966
v -0.189928 2.525098 -18.335636
v -0.358325 2.607431 -19.076883
v -0.385852 2.542390 -18.645912
v 0.004998 2.609923 -18.744602
v -0.165646 2.588573 -18.758722
v 0.015873 2.635622 -18.914883
v -0.154770 2.614271 -18.929005
v -0.309772 2.540322 -18.558102
v 0.122114 2.594358 -18.522362
v 0.236080 2.681804 -19.027693
v 0.208553 2.616764 -18.596722
v -2.374190 1.633132 -18.850033
v -2.384529 1.680185 -18.939379
v -1.976142 2.117403 -18.756378
v -1.965803 2.070350 -18.667034
v -2.240158 1.984808 -19.093395
v -2.173901 2.055744 -19.063704
v -2.280383 1.867194 -19.002764
v -2.107152 2.052654 -18.925138
v -2.110174 1.765727 -18.513018
v -2.176432 1.694792 -18.542707
v -2.307890 1.809154 -18.973419
v -2.280858 1.686134 -18.739828
v -2.135603 1.887603 -18.741722
v -2.204049 1.814326 -18.772394
v -2.146284 1.936210 -18.834019
v -2.214729 1.862932 -18.864689
v -2.243180 1.697883 -18.681273
v -2.069949 1.883341 -18.603649
v -2.069474 2.064401 -18.866585
v -2.042442 1.941381 -18.632992
v 1.653165 0.873891 -25.756710
v 1.600378 0.933257 -25.819897
v 1.778672 1.437432 -25.495173
v 1.831458 1.378067 -25.431984
v 1.538776 1.297714 -25.847017
v 1.567702 1.379513 -25.794333
v 1.583131 1.155538 -25.808498
v 1.658761 1.369400 -25.670755
v 1.893061 1.013610 -25.404865
v 1.864134 0.931811 -25.457550
v 1.594868 1.086098 -25.803331
v 1.732879 0.930888 -25.638126
v 1.758124 1.167249 -25.566093
v 1.728241 1.082749 -25.620516
v 1.703594 1.228573 -25.631367
v 1.673712 1.144074 -25.685791
v 1.773075 0.941924 -25.581127
v 1.848705 1.155786 -25.443386
v 1.698956 1.380435 -25.613756
v 1.836967 1.225225 -25.448551
vn 0.7271 -0.6206 0.2936
vn 0.6965 -0.7173 -0.0199
vn 0.8956 -0.4256 0.1293
vn -0.4390 -0.2185 0.8715
vn 0.4090 -0.5716 0.7113
vn 0.1225 0.1551 0.9803
vn -0.9928 0.1100 0.0481
vn -0.9114 0.0518 0.4082
vn -0.8329 0.5140 0.2049
vn -0.5925 -0.2410 -0.7687
vn -0.9525 0.0438 -0.3013
vn -0.6825 0.4453 -0.5795
vn 0.6399 -0.6931 -0.3317
vn 0.2346 -0.6653 -0.7087
vn 0.6666 -0.2621 -0.6978
vn 0.7667 -0.2461 0.5930
vn -0.6073 0.4437 0.6590
vn -0.8449 0.5152 -0.1437
vn -0.0408 0.1271 -0.9910
vn 0.8731 -0.4396 -0.2108
vn 0.5476 0.5761 0.6068
vn 0.8878 0.3796 0.2600
vn 0.3115 0.9408 0.1336
vn -0.3628 0.9052 0.2211
vn -0.0334 0.9008 0.4330
vn -0.0315 0.9982 0.0502
vn -0.3586 0.9050 -0.2286
vn -0.3656 0.9307 -0.0147
vn -0.0213 0.9905 -0.1356
vn 0.4254 0.6011 -0.6765
vn -0.0733 0.8993 -0.4310
vn 0.2632 0.9366 -0.2312
vn 0.9862 0.1510 -0.0681
vn 0.8272 0.3949 -0.3997
vn 0.5260 0.8471 -0.0758
vn 0.1822 0.9808 -0.0689
vn 0.5236 0.8405 0.1393
vn 0.0881 0.9805 -0.1754
vn 0.2675 0.9362 -0.2281
vn -0.1034 0.9725 -0.2088
vn -0.5844 0.7847 -0.2068
vn -0.1343 0.9811 0.1395
vn -0.7507 0.5448 0.3738
vn -0.8052 -0.0925 0.5857
vn -0.7507 0.5447 0.3738
usemtl Bush_A_1
s 1
f 1//1 13//2 17//3
f 2//4 12//5 19//6
f 3//7 14//8 21//9
f 4//10 15//11 23//12
f 5//13 16//14 25//15
f 1//1 17//3 20//16
f 2//4 19//6 22//17
f 3//7 21//9 24//18
f 4//10 23//12 26//19
f 5//13 25//15 18//20
f 6//21 27//22 32//23
f 7//24 28//25 34//26
f 8//27 29//28 35//29
f 9//30 30//31 36//32
f 10//33 31//34 33//35
f 33//35 36//32 11//36
f 33//35 31//34 36//32
f 31//34 9//30 36//32
f 36//32 35//29 11//36
f 36//32 30//31 35//29
f 30//31 8//27 35//29
f 35//29 34//26 11//36
f 35//29 29//28 34//26
f 29//28 7//24 34//26
f 34//26 32//23 11//36
f 34//26 28//25 32//23
f 28//25 6//21 32//23
f 32//23 33//35 11//36
f 32//23 27//22 33//35
f 27//22 10//33 33//35
f 18//20 31//34 10//33
f 18//20 25//15 31//34
f 25//15 9//30 31//34
f 26//19 30//31 9//30
f 26//19 23//12 30//31
f 23//12 8//27 30//31
f 24//18 29//28 8//27
f 24//18 21//9 29//28
f 21//9 7//24 29//28
f 22//17 28//25 7//24
f 22//17 19//6 28//25
f 19//6 6//21 28//25
f 20//16 27//22 6//21
f 20//16 17//3 27//22
f 17//3 10//33 27//22
f 25//15 26//19 9//30
f 25//15 16//14 26//19
f 16//14 4//10 26//19
f 23//12 24//18 8//27
f 23//12 15//11 24//18
f 15//11 3//7 24//18
f 21//9 22//17 7//24
f 21//9 14//8 22//17
f 14//8 2//4 22//17
f 19//6 20//16 6//21
f 19//6 12//5 20//16
f 12//5 1//1 20//16
f 17//3 18//20 10//33
f 17//3 13//2 18//20
f 13//2 5//13 18//20
usemtl Bush_A_2
s off
f 48//37 47//37 38//37 37//37
f 40//37 39//37 55//37 56//37
f 45//37 54//37 53//37 46//37
f 56//37 55//37 51//37 49//37
f 54//37 49//37 50//37 53//37
f 44//37 42//37 41//37 43//37
f 51//37 44//37 43//37 52//37
f 50//37 52//37 47//37 48//37
f 68//38 67//38 58//38 57//38
f 60//38 59//38 75//38 76//38
f 65//38 74//38 73//38 66//38
f 76//38 75//38 71//38 69//38
f 74//38 69//38 70//38 73//38
f 64//38 62//38 61//38 63//38
f 71//38 64//38 63//38 72//38
f 70//38 72//38 67//38 68//38
f 88//39 87//39 78//39 77//39
f 80//39 79//39 95//39 96//39
f 85//39 94//39 93//39 86//39
f 96//39 95//39 91//39 89//39
f 94//39 89//39 90//39 93//39
f 84//39 82//39 81//39 83//39
f 91//39 84//39 83//39 92//39
f 90//39 92//39 87//39 88//39
f 108//40 107//40 98//40 97//40
f 100//40 99//40 115//40 116//40
f 105//40 114//40 113//40 106//40
f 116//40 115//40 111//40 109//40
f 114//40 109//40 110//40 113//40
f 104//40 102//40 101//40 103//40
f 111//40 104//40 103//40 112//40
f 110//40 112//40 107//40 108//40
f 128//41 127//41 118//41 117//41
f 120//41 119//41 135//41 136//41
f 125//41 134//41 133//41 126//41
f 136//41 135//41 131//41 129//41
f 134//41 129//41 130//41 133//41
f 124//41 122//41 121//41 123//41
f 131//41 124//41 123//41 132//41
f 130//41 132//41 127//41 128//41
f 148//42 147//42 138//42 137//42
f 140//42 139//42 155//42 156//42
f 145//42 154//42 153//42 146//42
f 156//42 155//42 151//42 149//42
f 154//42 149//42 150//42 153//42
f 144//42 142//42 141//42 143//42
f 151//42 144//42 143//42 152//42
f 150//42 152//42 147//42 148//42
f 168//43 167//43 158//43 157//43
f 160//43 159//43 175//43 176//43
f 165//43 174//43 173//43 166//43
f 176//43 175//43 171//43 169//43
f 174//43 169//43 170//43 173//43
f 164//43 162//43 161//43 163//43
f 171//43 164//43 163//43 172//43
f 170//43 172//43 167//43 168//43
f 188//44 187//44 178//44 177//44
f 180//44 179//44 195//44 196//44
f 185//44 194//44 193//44 186//44
f 196//44 195//44 191//44 189//44
f 194//44 189//44 190//44 193//44
f 184//44 182//44 181//44 183//44
f 191//44 184//44 183//44 192//44
f 190//44 192//44 187//44 188//44
usemtl Bush_A_3
f 49//37 51//37 52//37 50//37
f 69//38 71//38 72//38 70//38
f 89//39 91//39 92//39 90//39
f 109//40 111//40 112//40 110//40
f 129//41 131//41 132//41 130//41
f 149//42 151//42 152//42 150//42
f 169//45 171//45 172//45 170//45
f 189//44 191//44 192//44 190//44
